<?xml version="1.0" encoding="utf-8"?>
<!-- Generator: Adobe Illustrator 21.0.2, SVG Export Plug-In . SVG Version: 6.00 Build 0)  -->
<svg version="1.1" id="Layer_1" xmlns="http://www.w3.org/2000/svg" xmlns:xlink="http://www.w3.org/1999/xlink" x="0px" y="0px"
	 viewBox="0 0 544 213" style="enable-background:new 0 0 544 213;" xml:space="preserve">
<style type="text/css">
	.st0{fill:none;stroke:#00315C;stroke-width:0.371;}
	.st1{fill:#AC4B5E;}
	.st2{fill:#0F5083;}
	.st3{fill:#262424;}
	.st4{fill:none;stroke:#262424;stroke-width:0.57;stroke-miterlimit:10;}
	.st5{fill:#2B54A1;}
	.st6{fill:#4E8FCC;}
	.st7{fill:#00315C;}
	.st8{fill:#4674B7;}
	.st9{fill:#CB2128;}
</style>
<g>
	<polyline class="st0" points="213.2,121.7 368.5,121.7 387.9,111.6 543.5,111.6 	"/>
	<polygon class="st1" points="246.9,155.6 224.9,164.2 213.2,155.6 	"/>
	<polygon class="st2" points="247.3,155.6 238.3,174 224.9,164.2 246.9,155.6 	"/>
	<g>
		<path class="st3" d="M266,166.3h7.2c-0.5,2.9-2.8,4.4-5.5,4.4c-1.7,0-3.1-0.6-4.1-1.4l-1.2,2.4c1.1,1,3.1,1.7,5.4,1.7
			c5.1,0,8.3-3.3,8.3-8.2c0-5-3.3-8.2-8-8.2c-2.4,0-4.4,0.8-5.5,1.8l1.1,2.1c1.1-0.8,2.5-1.2,3.7-1.2c3,0,5.2,1.5,5.7,4.2H266V166.3
			z M280.6,173.1h2.8v-8.2l6.5,8.2h3.6l-7-8.5l6.6-7.4h-3.4l-6.3,7.6v-7.6h-2.8V173.1z M307.5,169.5c-1.1,0.8-2.4,1.3-3.8,1.3
			c-3.3,0-5.5-2.3-5.5-5.6c0-3.5,2.2-5.6,5.2-5.6c1.6,0,2.7,0.4,3.6,1.1l1.3-2.1c-1.1-1-2.8-1.6-4.9-1.6c-5.3,0-8.2,3.6-8.2,8.2
			c0,5,3.4,8.2,8.2,8.2c2.1,0,4.1-0.7,5.1-1.8L307.5,169.5z M310.5,173.1h2.8l1.7-4.1h6.8l1.7,4.1h3l-6.7-16h-2.5L310.5,173.1z
			 M318.4,160.7l2.3,5.7h-4.7L318.4,160.7z M333,173.1v-5.8c0.7,0.1,1.6,0.1,2.1,0.1c3.8,0,5.8-2.5,5.8-5.2c0-2.6-1.5-5.1-6.2-5.1
			c-1.1,0-3.7,0-4.5,0v15.9H333z M335,159.8c1.9,0,2.9,0.8,2.9,2.5c0,1.8-1.3,2.6-3,2.6c-0.6,0-1.3-0.1-2-0.1v-4.9
			C333.8,159.8,334.5,159.8,335,159.8"/>
		<path class="st4" d="M266,166.3h7.2c-0.5,2.9-2.8,4.4-5.5,4.4c-1.7,0-3.1-0.6-4.1-1.4l-1.2,2.4c1.1,1,3.1,1.7,5.4,1.7
			c5.1,0,8.3-3.3,8.3-8.2c0-5-3.3-8.2-8-8.2c-2.4,0-4.4,0.8-5.5,1.8l1.1,2.1c1.1-0.8,2.5-1.2,3.7-1.2c3,0,5.2,1.5,5.7,4.2H266V166.3
			z M280.6,173.1h2.8v-8.2l6.5,8.2h3.6l-7-8.5l6.6-7.4h-3.4l-6.3,7.6v-7.6h-2.8V173.1z M307.5,169.5c-1.1,0.8-2.4,1.3-3.8,1.3
			c-3.3,0-5.5-2.3-5.5-5.6c0-3.5,2.2-5.6,5.2-5.6c1.6,0,2.7,0.4,3.6,1.1l1.3-2.1c-1.1-1-2.8-1.6-4.9-1.6c-5.3,0-8.2,3.6-8.2,8.2
			c0,5,3.4,8.2,8.2,8.2c2.1,0,4.1-0.7,5.1-1.8L307.5,169.5z M310.5,173.1h2.8l1.7-4.1h6.8l1.7,4.1h3l-6.7-16h-2.5L310.5,173.1z
			 M318.4,160.7l2.3,5.7h-4.7L318.4,160.7z M333,173.1v-5.8c0.7,0.1,1.6,0.1,2.1,0.1c3.8,0,5.8-2.5,5.8-5.2c0-2.6-1.5-5.1-6.2-5.1
			c-1.1,0-3.7,0-4.5,0v15.9H333z M335,159.8c1.9,0,2.9,0.8,2.9,2.5c0,1.8-1.3,2.6-3,2.6c-0.6,0-1.3-0.1-2-0.1v-4.9
			C333.8,159.8,334.5,159.8,335,159.8"/>
	</g>
	<polygon class="st5" points="246.9,194.5 224.9,203.1 213.2,194.5 	"/>
	<polygon class="st6" points="247.3,194.5 238.3,212.9 224.9,203.1 246.9,194.5 	"/>
	<g>
		<path class="st5" d="M266.8,212v-5.8c0.7,0.1,1.6,0.1,2.1,0.1c3.8,0,5.8-2.5,5.8-5.2c0-2.6-1.5-5.1-6.2-5.1c-1.1,0-3.6,0-4.5,0
			V212H266.8z M268.8,198.6c1.9,0,2.9,0.8,2.9,2.5c0,1.8-1.3,2.6-3,2.6c-0.6,0-1.3,0-2-0.1v-4.9
			C267.6,198.7,268.2,198.6,268.8,198.6 M278,204c0,5,3.6,8.2,8.3,8.2c4.7,0,8.3-3.4,8.3-8.2c0-5-3.6-8.2-8.3-8.2
			C281.4,195.8,278,199.4,278,204 M281,204c0-3.3,2.3-5.6,5.3-5.6c3,0,5.4,2.3,5.4,5.6c0,3.1-2,5.6-5.4,5.6
			C283.3,209.6,281,207.2,281,204 M310.3,208.4c-1.1,0.9-2.4,1.3-3.8,1.3c-3.3,0-5.5-2.3-5.5-5.6c0-3.5,2.2-5.6,5.2-5.6
			c1.6,0,2.6,0.4,3.6,1.1l1.2-2.1c-1-1-2.8-1.6-4.8-1.6c-5.3,0-8.2,3.6-8.2,8.2c0,5,3.3,8.2,8.2,8.2c2.1,0,4.1-0.7,5.1-1.8
			L310.3,208.4z M317.5,205.2h7.2c-0.5,2.9-2.8,4.4-5.5,4.4c-1.7,0-3.1-0.6-4.1-1.4l-1.2,2.4c1.1,1,3.1,1.7,5.4,1.7
			c5.1,0,8.3-3.3,8.3-8.3c0-5-3.3-8.2-8-8.2c-2.4,0-4.4,0.8-5.5,1.8l1.1,2.1c1.1-0.8,2.4-1.2,3.7-1.2c3,0,5.2,1.5,5.7,4.1h-7.1
			V205.2z M332.1,212h2.8v-8.2l6.5,8.2h3.5l-7-8.5l6.6-7.4h-3.4l-6.3,7.6v-7.6h-2.8V212z M359,208.4c-1.1,0.9-2.4,1.3-3.8,1.3
			c-3.3,0-5.5-2.3-5.5-5.6c0-3.5,2.2-5.6,5.2-5.6c1.6,0,2.6,0.4,3.6,1.1l1.3-2.1c-1.1-1-2.8-1.6-4.9-1.6c-5.3,0-8.2,3.6-8.2,8.2
			c0,5,3.3,8.2,8.2,8.2c2.1,0,4.1-0.7,5.1-1.8L359,208.4z M366.7,212l8.4-11.3V212h2.8v-15.9h-2.5l-8.4,11.3v-11.3h-2.8V212H366.7z
			 M383.6,212h2.8v-11.5l5.1,7h0.4l5-7.1V212h2.8v-15.9h-2.6l-5.2,7.5l-5.5-7.5h-2.8V212z M405.5,212c0.9,0,2.3,0.1,4.1,0.1
			c3.9,0,6.2-1.9,6.2-5.2c0-3-2-4.8-5.4-4.8c-0.6,0-1.5,0-2.1,0.1v-3.6h6.5v-2.6h-9.3V212z M410.2,204.7c2,0,2.8,1,2.8,2.4
			c0,1.4-0.9,2.4-2.9,2.4c-0.6,0-1.1,0-1.8-0.1v-4.5C409,204.7,409.7,204.7,410.2,204.7 M418.8,212h2.8l1.7-4.1h6.8l1.7,4.1h3
			l-6.7-16h-2.5L418.8,212z M426.7,199.6l2.3,5.7h-4.7L426.7,199.6z M448.6,212h2.8v-15.9h-2.8v6.5h-7.3v-6.5h-2.8V212h2.8v-6.8h7.3
			V212z M457.2,212h2.8v-8.2l6.5,8.2h3.6l-7-8.5l6.6-7.4h-3.4l-6.3,7.6v-7.6h-2.8V212z"/>
		<path class="st7" d="M417.8,15.3c0.2,2.4,2.3,4,5.6,4c3.1,0,5.4-1.6,5.5-4h-3.2c-0.1,1.2-1,1.6-2.3,1.6c-1.4,0-2.2-0.5-2.4-1.6
			H417.8z M417.7,39.8l10.3-14v14h3.5V20.1h-3l-10.3,14v-14h-3.5v19.7H417.7z M395.4,39.8l10.3-14v14h3.5V20.1h-3l-10.3,14v-14h-3.5
			v19.7H395.4z M373.4,39.8h3.5V29.6l8.1,10.2h4.4l-8.6-10.5l8.1-9.2h-4.2l-7.8,9.3v-9.3h-3.5V39.8z M368.7,35.3
			c-1.4,1-3,1.6-4.7,1.6c-4,0-6.8-2.8-6.8-6.9c0-4.3,2.8-6.9,6.4-6.9c2,0,3.3,0.5,4.4,1.3l1.5-2.6c-1.3-1.2-3.4-2-6-2
			c-6.5,0-10.1,4.5-10.1,10.2c0,6.1,4.1,10.2,10.2,10.2c2.6,0,5.1-0.9,6.3-2.2L368.7,35.3z M335.8,15.3c0.2,2.4,2.3,4,5.6,4
			c3.1,0,5.4-1.6,5.5-4h-3.2c-0.1,1.2-1,1.6-2.3,1.6c-1.4,0-2.2-0.5-2.4-1.6H335.8z M335.7,39.8l10.3-14v14h3.5V20.1h-3l-10.3,14
			v-14h-3.5v19.7H335.7z M313.4,39.8l10.3-14v14h3.5V20.1h-3l-10.3,14v-14h-3.5v19.7H313.4z M305.6,35.3c-1.4,1-3,1.6-4.7,1.6
			c-4,0-6.8-2.8-6.8-6.9c0-4.3,2.8-6.9,6.4-6.9c2,0,3.3,0.5,4.4,1.3l1.5-2.6c-1.3-1.2-3.4-2-6-2c-6.5,0-10.1,4.5-10.1,10.2
			c0,6.1,4.1,10.2,10.2,10.2c2.6,0,5.1-0.9,6.3-2.2L305.6,35.3z M287.2,35.3c-1.4,1-3,1.6-4.7,1.6c-4,0-6.8-2.8-6.8-6.9
			c0-4.3,2.8-6.9,6.4-6.9c2,0,3.3,0.5,4.4,1.3l1.5-2.6c-1.3-1.2-3.4-2-6-2c-6.5,0-10.1,4.5-10.1,10.2c0,6.1,4.1,10.2,10.2,10.2
			c2.6,0,5.1-0.9,6.3-2.2L287.2,35.3z M252.6,29.9c0-4.1,2.8-6.9,6.6-6.9c3.7,0,6.6,2.8,6.6,6.9c0,3.9-2.5,6.9-6.6,6.9
			C255.5,36.9,252.6,33.9,252.6,29.9 M249,29.9c0,6.1,4.4,10.2,10.3,10.2c5.9,0,10.3-4.3,10.3-10.2c0-6.1-4.4-10.2-10.3-10.2
			C253.1,19.8,249,24.2,249,29.9 M239.1,23.3c2.4,0,3.6,1,3.6,3.1c0,2.2-1.6,3.2-3.7,3.2c-0.8,0-1.6-0.1-2.5-0.1v-6.1
			C237.6,23.3,238.4,23.3,239.1,23.3 M236.6,39.8v-7.1c0.8,0.1,2,0.1,2.6,0.1c4.7,0,7.2-3,7.2-6.4c0-3.2-1.8-6.3-7.6-6.3
			c-1.4,0-4.5,0.1-5.6,0.1v19.7H236.6z"/>
		<path class="st7" d="M248.2,68.1c0-6.1-4.1-10.1-9.9-10.1c-3,0-5.4,1-6.8,2.2l1.4,2.6c1.4-1,3-1.5,4.6-1.5c3.7,0,6.4,1.8,7.1,5.1
			h-8.8v3.2h8.9c-0.6,3.6-3.4,5.5-6.8,5.5c-2.1,0-3.8-0.8-5.1-1.7l-1.5,2.9c1.4,1.2,3.9,2.1,6.6,2.1
			C244.2,78.3,248.2,74.2,248.2,68.1 M268.1,77.9l-8.6-10.5l8.1-9.2h-4.2l-7.8,9.3v-9.3h-3.5v19.7h3.5V67.8l8.1,10.2H268.1z
			 M273.3,68.1c0-4.3,2.8-6.9,6.4-6.9c2,0,3.3,0.5,4.4,1.3l1.5-2.6c-1.3-1.2-3.4-2-6-2c-6.5,0-10.1,4.5-10.1,10.2
			c0,6.1,4.1,10.2,10.2,10.2c2.6,0,5.1-0.9,6.3-2.2l-1.3-2.6c-1.4,1-3,1.6-4.7,1.6C276.1,75,273.3,72.2,273.3,68.1 M301.8,77.9h3.5
			V58.2h-15.7v19.7h3.5V61.5h8.8V77.9z M326.2,68.1c0,3.9-2.5,6.9-6.6,6.9c-3.7,0-6.6-3-6.6-6.9c0-4.1,2.8-6.9,6.6-6.9
			C323.3,61.2,326.2,64,326.2,68.1 M329.8,68.1c0-6.1-4.4-10.2-10.3-10.2c-6.1,0-10.3,4.4-10.3,10.2c0,6.1,4.4,10.2,10.3,10.2
			C325.4,78.3,329.8,74,329.8,68.1 M343.4,64.5c0,2.2-1.6,3.2-3.7,3.2c-0.8,0-1.6-0.1-2.5-0.1v-6.1c0.9,0,1.8-0.1,2.5-0.1
			C342.1,61.4,343.4,62.4,343.4,64.5 M347.1,64.5c0-3.2-1.8-6.3-7.6-6.3c-1.4,0-4.5,0.1-5.6,0.1v19.7h3.5v-7.1
			c0.8,0.1,2,0.1,2.6,0.1C344.6,70.9,347.1,67.9,347.1,64.5 M358.5,61.5h6.4v-3.2h-16.2v3.2h6.4v16.5h3.5V61.5z M380.4,77.9h3.4
			V58.2h-3.4v8.1h-9v-8.1h-3.5v19.7h3.5v-8.4h9V77.9z M398.5,71.3c0,2.3-1.4,3.5-3.9,3.5c-0.7,0-1.2-0.1-1.9-0.1v-6.4
			c0.8-0.1,1.4-0.1,1.9-0.1C397.1,68.1,398.5,69.2,398.5,71.3 M402.1,71.2c0-3.9-2.3-6.4-7.2-6.4c-0.6,0-1.3,0-2.2,0.1v-6.8h-3.5
			v19.7c1.2,0,3,0.1,4.9,0.1C399.2,78,402.1,75.4,402.1,71.2 M404.7,77.9h3.4V58.2h-3.4V77.9z M427.8,53.4h-3.2
			c-0.1,1.2-1,1.6-2.3,1.6c-1.4,0-2.2-0.5-2.4-1.6h-3.2c0.2,2.4,2.3,4,5.6,4C425.4,57.5,427.8,55.9,427.8,53.4 M427,77.9h3.5V58.2
			h-3l-10.3,14v-14h-3.5v19.7h3L427,64V77.9z"/>
		<path class="st7" d="M460.9,81.5h3.2v-6.8h-2.7V58.2H458v16.5h-8.6V58.2h-3.5v19.7h15V81.5z M467.5,77.9h11.7v-3.2H471v-5.1h7.1
			v-3.2H471v-4.9h7.9v-3.2h-11.4V77.9z M496.2,77.9h3.4V58.2h-3.4v8.1h-9v-8.1h-3.5v19.7h3.5v-8.4h9V77.9z M512.5,61.5h6.4v-3.2
			h-16.3v3.2h6.4v16.5h3.5V61.5z M531.5,64.5c0,2.2-1.6,3.2-3.7,3.2c-0.8,0-1.6-0.1-2.5-0.1v-6.1c0.9,0,1.8-0.1,2.5-0.1
			C530.2,61.4,531.5,62.4,531.5,64.5 M535.2,64.5c0-3.2-1.8-6.3-7.6-6.3c-1.4,0-4.5,0.1-5.6,0.1v19.7h3.5v-7.1
			c0.8,0.1,2,0.1,2.6,0.1C532.7,70.9,535.2,67.9,535.2,64.5"/>
	</g>
	<polygon class="st8" points="97.2,0 85.6,4.3 83.6,0 	"/>
	<polygon class="st9" points="83.6,0 85.6,4.3 75.7,8 	"/>
	<polygon class="st8" points="132.3,1 141.8,14.3 106.1,11.1 	"/>
	<polygon class="st8" points="190.9,0 176.7,5.6 169.1,0 	"/>
	<polygon class="st8" points="75.7,22.5 64.4,36 50.3,34.5 	"/>
	<polygon class="st9" points="64.4,36 50.3,52.7 50.3,34.5 	"/>
	<polygon class="st9" points="191.1,0 185.3,11.9 176.7,5.6 190.9,0 	"/>
	<polygon class="st8" points="22.4,63.5 21.2,77 0.1,88.5 	"/>
	<polygon class="st9" points="21.2,77 19.6,92.4 0,88.5 	"/>
	<polygon class="st8" points="149.3,26.6 169.3,50.9 136,47.4 	"/>
	<polygon class="st9" points="169.3,50.9 120.8,71.1 136,47.4 	"/>
	<polygon class="st9" points="97,79.9 50.1,99.6 50.1,69.3 	"/>
	<polygon class="st8" points="154.5,88.8 140.8,116.9 133.5,97.5 	"/>
	<polygon class="st9" points="133.5,97.5 140.8,116.9 105.3,109.7 	"/>
	<polygon class="st8" points="82.8,38.6 110.4,27.8 117.9,42.2 	"/>
	<polygon class="st9" points="82.8,38.6 117.9,42.2 87.1,54.6 	"/>
</g>
</svg>
