<svg xmlns="http://www.w3.org/2000/svg" xmlns:xlink="http://www.w3.org/1999/xlink" viewBox="0 0 251.56 189.02"><defs><style>.cls-1{fill:none;}.cls-2{clip-path:url(#clip-path);}.cls-3{fill:url(#Безымянный_градиент_6);}.cls-4{clip-path:url(#clip-path-2);}.cls-5{fill:url(#Безымянный_градиент_5);}.cls-6{clip-path:url(#clip-path-3);}.cls-7{fill:url(#Безымянный_градиент_3);}.cls-8{clip-path:url(#clip-path-4);}.cls-9{fill:url(#Безымянный_градиент_2);}.cls-10{fill:#21579f;}.cls-11{fill:#3f77b6;}</style><clipPath id="clip-path"><path class="cls-1" d="M105.3,62.36a30.26,30.26,0,0,0-19,6.38c16,.93,28.17,23.46,46.4,40,5.68,5.16,22-10.55,24.83-17.7v-3h0c-10.27-9-32-25.72-52.17-25.72h0"/></clipPath><linearGradient id="Безымянный_градиент_6" x1="310.53" y1="5028.82" x2="311.53" y2="5028.82" gradientTransform="matrix(-16.31, 0, 0, 16.31, 5201.33, -81923.75)" gradientUnits="userSpaceOnUse"><stop offset="0" stop-color="#e6e7e7"/><stop offset="1" stop-color="#bcbdbf"/></linearGradient><clipPath id="clip-path-2"><path class="cls-1" d="M85.59,68.61a30.7,30.7,0,0,0-20.85,7.54c21.23,0,36.89,35.36,68.23,46.6l10.35-26.19s-30.65-28-57.72-28h0"/></clipPath><linearGradient id="Безымянный_градиент_5" x1="319.13" y1="5050.75" x2="320.13" y2="5050.75" gradientTransform="matrix(-17.5, 0, 0, 17.5, 5705.17, -88301.09)" gradientUnits="userSpaceOnUse"><stop offset="0" stop-color="#5bc0ed"/><stop offset="0" stop-color="#5bc0ed"/><stop offset="1" stop-color="#008bc9"/></linearGradient><clipPath id="clip-path-3"><path class="cls-1" d="M128,94c-10.7,1.25-21.37-4.44-31.93-10.2,23.43,25.55,52,36.77,75.34,15.49,12.71-18.83,19-41.31,29.81-42.58-4-3.19-7.84-4.55-11.5-4.55-19.55,0-35,38.71-61.73,41.83"/></clipPath><linearGradient id="Безымянный_градиент_3" x1="493.48" y1="5198.62" x2="494.48" y2="5198.62" gradientTransform="matrix(-78.22, 0, 0, 78.22, 38800.22, -406555.2)" gradientUnits="userSpaceOnUse"><stop offset="0" stop-color="#007fb1"/><stop offset="1" stop-color="#1169ac"/></linearGradient><clipPath id="clip-path-4"><path class="cls-1" d="M60.37,74.09A25,25,0,0,0,52.78,78a2.91,2.91,0,0,0,1.12,5.16c21.9,5,41.22,46.06,80.64,41.45,17.2-2,28.43-12.87,36.85-25.34C148,120.55,125.71,102.39,96,83.77c-8.26-4.51-16.46-9-24.54-10.33a32.35,32.35,0,0,0-4.07-.26,27,27,0,0,0-7.07.91"/></clipPath><linearGradient id="Безымянный_градиент_2" x1="476.92" y1="5180.15" x2="477.92" y2="5180.15" gradientTransform="matrix(-56.92, 0, 0, 56.92, 27296.47, -294777.44)" gradientUnits="userSpaceOnUse"><stop offset="0" stop-color="#d85936"/><stop offset="1" stop-color="#931b28"/></linearGradient></defs><title>Ресурс 1</title><g id="Слой_2" data-name="Слой 2"><g id="Layer_1" data-name="Layer 1"><g class="cls-2"><rect class="cls-3" x="79.74" y="44.19" width="84.26" height="87.89" transform="translate(-22.24 131.17) rotate(-52.5)"/></g><g class="cls-4"><rect class="cls-5" x="59.17" y="47.98" width="89.71" height="95.42" transform="translate(-34.28 124.81) rotate(-54.5)"/></g><g class="cls-6"><rect class="cls-7" x="88.23" y="24.27" width="120.79" height="124.15" transform="translate(-14.33 141.01) rotate(-48.7)"/></g><g class="cls-8"><rect class="cls-9" x="50.24" y="37.4" width="121.7" height="127.59" transform="translate(-38.26 117.86) rotate(-48.7)"/></g><path class="cls-10" d="M14.46,32.72a7.85,7.85,0,0,1-5.54,2c-5.27,0-8.92-3.5-8.92-8.8,0-4.89,3-8.8,8.9-8.8a7.65,7.65,0,0,1,5.2,1.77l-1.73,2.92a6.08,6.08,0,0,0-3.48-1c-2.62,0-4.76,1.8-4.76,5.15A4.93,4.93,0,0,0,9.29,31,6.24,6.24,0,0,0,13,29.81Z"/><path class="cls-10" d="M15.43,30.75h1.82c.68-.87,2.21-4.4,2.46-10l.15-3.4H31V30.75h2.31v6.56H29.63V34.4H19.08v2.92H15.43Zm6.1,0h5.54V21H23.62l-.27,2.87C23.09,26.84,22.12,30,21.53,30.75Z"/><path class="cls-10" d="M36.18,17.38H46.27V21h-6.2v3h5.47v3.65H40.07v3.09h6.44V34.4H36.18Z"/><path class="cls-10" d="M59.93,21H56.18l-.37,3.21c-1,9-3.16,10.82-7.15,10.16l.07-3.89c1.41.24,2.87-.29,3.55-9.72l.24-3.4H63.82v17H59.93Z"/><path class="cls-10" d="M73.31,17.38h3.48l7.07,17H79.71L78.3,30.83H71.56L70.15,34.4H66.24ZM73,27.18h3.82l-1.9-4.81Z"/><path class="cls-10" d="M96.38,27.55h-6.2V34.4H86.29v-17h3.89V23.9h6.2V17.38h3.89v17H96.38Z"/><path class="cls-10" d="M112.71,17.09c5.18,0,9,3.38,9,8.8,0,5.15-3.86,8.8-9,8.8s-9-3.38-9-8.8A8.62,8.62,0,0,1,112.71,17.09Zm0,14c3.23,0,4.91-2.28,4.91-5.15a4.92,4.92,0,1,0-9.82,0A5,5,0,0,0,112.71,31Z"/><path class="cls-10" d="M129.93,17.43c.95,0,3.31-.15,5.15-.15,4.06,0,5.71,1.87,5.71,4.23a4.17,4.17,0,0,1-1.94,3.79v0a3.89,3.89,0,0,1,2.43,3.89c0,3.57-2.77,5.25-6.47,5.25-1.63,0-3.89,0-4.89-.15Zm3.89,3.6v3.09h1.29c1,0,1.8-.41,1.8-1.65,0-1-.92-1.53-1.87-1.53A9.5,9.5,0,0,0,133.82,21Zm0,6.49v3.18a4.41,4.41,0,0,0,1.31.15c1.51,0,2.26-.66,2.26-1.8s-.8-1.53-2.07-1.53Z"/><path class="cls-10" d="M150,34.4v-17c.95,0,3.89,0,5.2,0,5.18,0,6.88,2.7,6.88,5.64s-2.36,5.71-6.3,5.71a18.77,18.77,0,0,1-1.9-.07V34.4ZM153.84,21v3.89a14.42,14.42,0,0,0,1.77.12A2,2,0,0,0,157.9,23c0-1.51-1-2-2.36-2C155,21,154.65,21,153.84,21Z"/><path class="cls-10" d="M173.26,17.09c5.18,0,9,3.38,9,8.8,0,5.15-3.86,8.8-9,8.8s-9-3.38-9-8.8A8.62,8.62,0,0,1,173.26,17.09Zm0,14c3.23,0,4.91-2.28,4.91-5.15a4.92,4.92,0,1,0-9.82,0A5,5,0,0,0,173.26,31Z"/><path class="cls-10" d="M198.95,32.72a7.85,7.85,0,0,1-5.54,2c-5.27,0-8.92-3.5-8.92-8.8,0-4.89,3-8.8,8.9-8.8a7.65,7.65,0,0,1,5.2,1.77l-1.73,2.92a6.08,6.08,0,0,0-3.48-1c-2.63,0-4.76,1.8-4.76,5.15A4.93,4.93,0,0,0,193.77,31a6.25,6.25,0,0,0,3.69-1.24Z"/><path class="cls-10" d="M214.4,32.72a7.85,7.85,0,0,1-5.54,2c-5.27,0-8.92-3.5-8.92-8.8,0-4.89,3-8.8,8.9-8.8a7.65,7.65,0,0,1,5.2,1.77l-1.73,2.92a6.08,6.08,0,0,0-3.48-1c-2.63,0-4.76,1.8-4.76,5.15A4.93,4.93,0,0,0,209.22,31a6.25,6.25,0,0,0,3.69-1.24Z"/><path class="cls-10" d="M217.29,34.4v-17h3.89V28l7.54-10.57h3.4v17h-3.89V23.83L220.69,34.4Z"/><path class="cls-10" d="M236.73,34.4v-17h3.89V28l7.54-10.57h3.4v17h-3.89V23.83L240.13,34.4Z"/><path class="cls-11" d="M28.5,145.37h3.91l5.25,7.17,5-7.17H46.3v17H42.41V151.55l-4.74,6.64h-.56l-4.72-6.56v10.77H28.5Z"/><path class="cls-11" d="M55.79,145.37h3.48l7.07,17H62.19l-1.41-3.57H54l-1.41,3.57H48.72Zm-.29,9.79h3.82l-1.9-4.81Z"/><path class="cls-11" d="M68.77,145.37h.34c.9,0,3.91-.07,5-.07,6.81,0,9.55,3.91,9.55,8.43,0,4.76-3.26,8.7-9.75,8.7-.9,0-3.14,0-4.76,0h-.41ZM72.66,149v9.72a13.11,13.11,0,0,0,1.41,0c3.35,0,5.49-1.82,5.49-5.06s-2.31-4.79-5.47-4.79A9.88,9.88,0,0,0,72.66,149Z"/><path class="cls-11" d="M87.09,145.37H97.18V149H91v3h5.47v3.65H91v3.09h6.44v3.65H87.09Z"/><path class="cls-11" d="M106.41,145.37h3.89v17h-3.89Z"/><path class="cls-11" d="M126.87,162.39l-8.07-10.21v10.21h-3.65v-17h3.11l8.07,10.26V145.37H130v17Z"/><path class="cls-11" d="M139.43,162.39v-17l5.79,0c4.64,0,6.3,2.31,6.3,5.44a5.14,5.14,0,0,1-2.87,4.91l5,6.71h-4.71l-4.13-6h-1.43v6ZM143.32,149v3.77h1.41c1.48,0,2.65-.53,2.65-2,0-.95-.49-1.85-2.36-1.85C144.44,149,144.13,149,143.32,149Z"/><path class="cls-11" d="M170.15,155.36c0,5.2-3.31,7.32-7,7.32-4.37,0-7.41-2.5-7.41-7.49v-9.82h3.89v9c0,2.65.8,4.67,3.52,4.67,2.36,0,3.06-1.73,3.06-4.45v-9.21h3.89Z"/><path class="cls-11" d="M173.67,150c0-2.62,2.09-4.91,5.49-4.91a6.75,6.75,0,0,1,5,1.87l-2.09,2.92a3.26,3.26,0,0,0-2.58-1.14c-1.07,0-1.7.49-1.7,1.26,0,2.82,7.1,2.14,7.1,7.68,0,3-2.55,5-5.83,5-2.29,0-4.93-1-5.76-2.8l2.21-2.65a4.77,4.77,0,0,0,3.65,1.8c1,0,1.6-.51,1.6-1.31C180.77,155.17,173.67,155.48,173.67,150Z"/><path class="cls-11" d="M187.45,150c0-2.62,2.09-4.91,5.49-4.91a6.75,6.75,0,0,1,5,1.87l-2.09,2.92a3.26,3.26,0,0,0-2.58-1.14c-1.07,0-1.7.49-1.7,1.26,0,2.82,7.1,2.14,7.1,7.68,0,3-2.55,5-5.83,5-2.29,0-4.93-1-5.76-2.8l2.21-2.65a4.77,4.77,0,0,0,3.65,1.8c1,0,1.6-.51,1.6-1.31C194.55,155.17,187.45,155.48,187.45,150Z"/><path class="cls-11" d="M202.32,145.37h3.89v17h-3.89Z"/><path class="cls-11" d="M216,145.37h3.48l7.07,17h-4.16l-1.41-3.57h-6.73l-1.41,3.57h-3.91Zm-.29,9.79h3.82l-1.9-4.81Z"/></g></g></svg>