<?xml version="1.0" encoding="utf-8"?>
<!-- Generator: Adobe Illustrator 21.0.2, SVG Export Plug-In . SVG Version: 6.00 Build 0)  -->
<svg version="1.1" id="Layer_1" xmlns="http://www.w3.org/2000/svg" xmlns:xlink="http://www.w3.org/1999/xlink" x="0px" y="0px"
	 viewBox="0 0 568.7 286.1" style="enable-background:new 0 0 568.7 286.1;" xml:space="preserve">
<style type="text/css">
	.st0{clip-path:url(#SVGID_2_);fill:url(#SVGID_3_);}
	.st1{clip-path:url(#SVGID_5_);fill:url(#SVGID_6_);}
	.st2{clip-path:url(#SVGID_8_);fill:url(#SVGID_9_);}
	.st3{clip-path:url(#SVGID_11_);fill:url(#SVGID_12_);}
	.st4{fill:#262424;}
</style>
<g>
	<g>
		<g>
			<defs>
				<path id="SVGID_1_" d="M103.6,19.7c-12.9,0-25.4,3.5-36.7,12.3c30.9,1.8,54.3,45.2,89.5,77.2c10.9,9.9,42.4-20.3,47.9-34.2v-5.7
					c0,0,0,0,0,0C184.4,51.9,142.5,19.7,103.6,19.7C103.6,19.7,103.6,19.7,103.6,19.7"/>
			</defs>
			<clipPath id="SVGID_2_">
				<use xlink:href="#SVGID_1_"  style="overflow:visible;"/>
			</clipPath>
			
				<linearGradient id="SVGID_3_" gradientUnits="userSpaceOnUse" x1="247.4897" y1="175.4223" x2="248.4897" y2="175.4223" gradientTransform="matrix(-19.1511 24.9581 24.9581 19.1511 514.9165 -9490.3027)">
				<stop  offset="0" style="stop-color:#E5E6E7"/>
				<stop  offset="1" style="stop-color:#BABCBE"/>
			</linearGradient>
			<polygon class="st0" points="252.2,56.6 153.3,185.5 18.8,82.3 117.7,-46.7 			"/>
		</g>
		<g>
			<defs>
				<path id="SVGID_4_" d="M65.5,31.8c-14.4,0-28.3,4.1-40.2,14.6c41,0,71.2,68.2,131.6,89.9l20-50.5
					C176.9,85.7,117.8,31.8,65.5,31.8C65.5,31.8,65.5,31.8,65.5,31.8"/>
			</defs>
			<clipPath id="SVGID_5_">
				<use xlink:href="#SVGID_4_"  style="overflow:visible;"/>
			</clipPath>
			
				<linearGradient id="SVGID_6_" gradientUnits="userSpaceOnUse" x1="246.321" y1="173.9498" x2="247.321" y2="173.9498" gradientTransform="matrix(-19.6051 27.4854 27.4854 19.6051 166.8245 -10121.3037)">
				<stop  offset="0" style="stop-color:#65BEF0"/>
				<stop  offset="5.896200e-04" style="stop-color:#65BEF0"/>
				<stop  offset="1" style="stop-color:#0087CB"/>
			</linearGradient>
			<polygon class="st1" points="226.3,67 125.8,207.9 -24.1,101 76.4,-39.9 			"/>
		</g>
		<g>
			<defs>
				<path id="SVGID_7_" d="M266.3,0c-37.7,0.1-67.6,74.7-119,80.7c-20.6,2.4-41.2-8.6-61.6-19.7c45.2,49.3,100.2,70.9,145.3,29.9
					c24.5-36.3,36.7-79.7,57.5-82.1C280.8,2.6,273.5,0,266.4,0H266.3z"/>
			</defs>
			<clipPath id="SVGID_8_">
				<use xlink:href="#SVGID_7_"  style="overflow:visible;"/>
			</clipPath>
			
				<linearGradient id="SVGID_9_" gradientUnits="userSpaceOnUse" x1="231.1763" y1="172.2928" x2="232.1763" y2="172.2928" gradientTransform="matrix(-99.5872 113.3578 113.3578 99.5872 3743.4075 -43371.5977)">
				<stop  offset="0" style="stop-color:#1C7CB2"/>
				<stop  offset="1" style="stop-color:#2466AE"/>
			</linearGradient>
			<polygon class="st2" points="354,57.5 200.2,232.5 20.3,74.5 174.1,-100.6 			"/>
		</g>
		<g>
			<defs>
				<path id="SVGID_10_" d="M16.9,42.3c-4.9,1.5-9.8,4-14.6,7.5C0.7,51,0,52.7,0,54.3v0.1c0,2.5,1.6,4.9,4.4,5.5
					c42.3,9.6,79.5,88.9,155.6,80c33.2-3.9,54.8-24.8,71.1-48.9c-45.1,41-88.1,6-145.3-29.9C69.8,52.3,54,43.6,38.4,41.1
					c-2.8-0.3-5.4-0.5-7.9-0.5C25.4,40.6,20.9,41.2,16.9,42.3"/>
			</defs>
			<clipPath id="SVGID_11_">
				<use xlink:href="#SVGID_10_"  style="overflow:visible;"/>
			</clipPath>
			
				<linearGradient id="SVGID_12_" gradientUnits="userSpaceOnUse" x1="232.7309" y1="172.4353" x2="233.7309" y2="172.4353" gradientTransform="matrix(-72.4739 82.4952 82.4952 72.4739 2803.8972 -31654.5879)">
				<stop  offset="0" style="stop-color:#D25A2A"/>
				<stop  offset="1" style="stop-color:#8D2124"/>
			</linearGradient>
			<polygon class="st3" points="284.7,87.7 130.4,263.2 -53.6,101.6 100.6,-74 			"/>
		</g>
	</g>
	<g>
		<g>
			<g>
				<path class="st4" d="M148.7,207.5c-0.7,2.1-1.9,3.6-3.6,4.7c-1.7,1.1-3.7,1.7-6,1.7c-3.3,0-5.9-1.1-7.9-3.3
					c-2.1-2.3-3.1-5-3.1-8.3c0-3.5,1-6.4,3-8.5c2-2.2,4.6-3.2,8-3.2c4.8,0.1,7.9,2,9.4,5.8l0.2,0.6h7.4l-0.3-1.1
					c-0.6-2.7-1.9-5-3.6-6.9c-1.8-1.9-3.8-3.3-6-4.2c-2.2-0.9-4.6-1.3-7.1-1.3c-5.2,0-9.7,1.7-13.3,5.1c-3.6,3.4-5.5,8.1-5.5,13.8
					c0,5.7,1.8,10.3,5.4,13.7c3.6,3.4,8.1,5.1,13.3,5.1c4,0,7.7-1.1,10.8-3.3c3.2-2.2,5.3-5.5,6.2-9.8l0.2-1.1h-7.4L148.7,207.5z"/>
				<path class="st4" d="M263.5,210.1v1.4c-0.2,1.1-0.9,2-1.9,2.6c-1.2,0.7-2.5,1-3.9,1c-1,0-1.9-0.2-2.6-0.7
					c-0.6-0.4-0.9-1-0.9-1.9c0-1.1,0.4-2,1.1-2.6c0.8-0.7,1.7-1,2.9-1c0.1,0,0.2,0,0.3,0C260.3,208.8,261.9,209.2,263.5,210.1
					 M257.3,203.3c-3,0-5.5,0.8-7.4,2.4c-2,1.6-2.9,4-2.9,7c0,2.6,1,4.6,2.9,6.2c1.9,1.5,4.1,2.2,6.7,2.2c2,0,3.9-0.4,5.6-1.2
					c1-0.5,1.9-1.1,2.7-1.9c0.2,0.6,0.5,1.2,0.9,1.6c1.5,1.7,3.8,1.5,6.7,1.1l0.8-0.1l-0.2-4.9l-1,0.1c-0.7,0.1-1,0-1.1,0
					c0,0-0.1,0-0.1-0.2c-0.1-0.4-0.2-0.7-0.2-0.8c0-0.3,0-0.8,0-1.5v-9.5c0-3.4-1.2-5.9-3.5-7.5c-2.2-1.4-5.1-2.2-8.5-2.2
					c-3.6,0-6.7,0.7-9.3,2l-0.6,0.3l1.2,5.8l1.1-0.6c0.8-0.4,1.8-0.7,3.2-1c1.4-0.3,2.9-0.4,4.4-0.5c1.4,0,2.6,0.3,3.6,0.9
					c0.9,0.6,1.3,1.4,1.3,2.5v0.9C261.6,203.7,259.5,203.3,257.3,203.3"/>
				<polygon class="st4" points="284.1,210.6 294,210.6 294,220.7 301.1,220.7 301.1,194.7 294,194.7 294,204 284.1,204 
					284.1,194.7 277.1,194.7 277.1,220.7 284.1,220.7 				"/>
				<path class="st4" d="M219.8,221c2.4,0,4.1-0.5,5.2-1.5c1.6-1.4,2.6-4,3-8.2l1.1-10h6.6v19.4h7.2v-26h-20.1l-1.9,16.2
					c-0.3,2.4-0.8,3.3-1,3.6c-0.2,0.2-0.8,0.6-3,0.3l-1-0.1l-0.1,5.8l0.8,0.1C217.7,220.9,218.8,221,219.8,221"/>
				<path class="st4" d="M312.9,207.6c0-2.2,0.6-3.8,1.8-5c1.2-1.2,2.7-1.8,4.4-1.9c0.1,0,0.2,0,0.2,0c1.7,0,3.1,0.6,4.4,1.7
					c1.3,1.2,2,2.9,2,5.1c0,2.2-0.6,3.9-1.9,5.1c-1.3,1.2-2.7,1.8-4.5,1.8c-1.8,0-3.3-0.6-4.6-1.8
					C313.5,211.5,312.9,209.9,312.9,207.6 M328.9,217.6c2.7-2.4,4.1-5.8,4.1-10c0-2.9-0.7-5.4-2.1-7.5c-1.4-2.1-3.1-3.7-5.2-4.6
					c-2-0.9-4.3-1.4-6.6-1.4c-3.6,0.1-6.8,1.3-9.4,3.6c-2.7,2.4-4,5.7-4,9.9c0,4.2,1.4,7.6,4.1,10c2.7,2.4,5.9,3.6,9.6,3.6
					S326.2,220,328.9,217.6"/>
				<path class="st4" d="M176,201.1v13.5h-7.9c0.1-0.2,0.2-0.5,0.3-0.8c0.3-0.9,0.6-2.3,0.9-4.4l1.1-8.4H176z M164.3,220.7h15.4v5.6
					h6.5l0.2-11.7h-3.3v-19.9h-18.8l-1.8,12.9c0,0.2-0.1,0.4-0.1,0.7c-0.2,1.8-0.4,3-0.6,3.7c-0.1,0.6-0.5,1.2-1,1.8
					c-0.4,0.5-1,0.8-1.8,0.8h-1.5l0.2,11.7h6.7V220.7z"/>
				<path class="st4" d="M202,200.2c1.6,0,2.9,0.4,4,1.3c0.8,0.6,1.2,1.4,1.4,2.5h-11.2C197,201.4,198.9,200.2,202,200.2
					 M212.6,219.2l0.6-0.3l-1-5.9l-1.1,0.5c-2.5,1.1-5.3,1.6-8.4,1.4c-2.1,0-3.7-0.6-5-1.7c-1.1-0.9-1.7-2.1-1.9-3.5h17.6l0.1-0.7
					c0.8-4.3,0.3-7.9-1.8-10.6c-2.1-2.7-5.4-4.1-9.8-4.1c-3.7,0-6.9,1.2-9.4,3.4c-2.6,2.3-3.9,5.5-4,9.6c-0.1,4.3,1.2,7.7,3.9,10.3
					c2.7,2.5,6.1,3.8,10.2,3.8C206,221.3,209.3,220.6,212.6,219.2"/>
			</g>
			<path class="st4" d="M361.9,204.5h-3.3v-3.9h3.3c3.9,0,3.9,1.4,3.9,2C365.8,203.1,365.8,204.5,361.9,204.5 M358.6,210h3.6
				c0.8,0,1.4,0,1.9,0.1c0.5,0.1,1.1,0.2,1.7,0.3c0.5,0.1,0.8,0.3,1,0.7c0.2,0.3,0.4,0.8,0.4,1.3c0,0.6-0.1,1-0.3,1.4
				c-0.2,0.3-0.5,0.5-1,0.6c-0.6,0.2-1.1,0.3-1.5,0.3c-0.5,0-1.1,0-1.9,0h-3.8V210z M370.9,206.7c1.4-1.1,2.1-2.7,2.1-4.8
				c0-1.3-0.3-2.5-0.8-3.4c-0.5-0.9-1.2-1.7-1.9-2.2c-0.7-0.5-1.7-0.9-2.8-1.1c-1.1-0.2-2.1-0.4-2.9-0.4c-0.8-0.1-1.8-0.1-2.9-0.1
				h-10.2v26.1H363c1.1,0,2.1,0,3-0.1c0.9-0.1,1.9-0.3,2.9-0.6c1.1-0.3,2-0.8,2.8-1.3c0.8-0.6,1.4-1.4,1.9-2.4
				c0.5-1,0.7-2.2,0.7-3.5c0-1.7-0.5-3.1-1.4-4.4C372.4,207.8,371.7,207.2,370.9,206.7"/>
			<g>
				<path class="st4" d="M473.2,210.8c-0.5,1.3-1.2,2.2-2.2,2.8c-1,0.7-2.2,1-3.4,1c-1.7,0-3.2-0.6-4.6-1.8
					c-1.3-1.2-1.9-2.9-1.9-5.1c0-2.2,0.6-3.8,2-5c1.3-1.3,2.9-1.9,4.6-1.9c1.3,0,2.5,0.3,3.5,0.9c1,0.5,1.7,1.3,2.1,2.4l0.2,0.6h6.8
					l-0.2-1.1c-0.7-3-2.2-5.4-4.6-7c-2.3-1.6-5.1-2.5-8-2.4c-2.3,0-4.5,0.6-6.5,1.5c-2,1-3.7,2.6-5.1,4.7c-1.4,2.1-2.1,4.6-2.1,7.4
					c0,4.2,1.4,7.5,4.1,9.9c2.7,2.4,5.9,3.6,9.6,3.6c3,0,5.8-0.9,8.1-2.5c2.4-1.7,3.9-4.2,4.6-7.3l0.2-1.1h-7L473.2,210.8z"/>
				<polygon class="st4" points="520.5,208 520.5,194.7 513.3,194.7 513.3,220.8 516.1,220.8 530.2,207.4 530.2,220.7 537.3,220.7 
					537.3,194.7 534.3,194.7 				"/>
				<polygon class="st4" points="564.3,194.7 550.5,208 550.5,194.7 543.3,194.7 543.3,220.8 546.1,220.8 560.2,207.4 560.2,220.7 
					567.3,220.7 567.3,194.7 				"/>
				<path class="st4" d="M502.2,210.8c-0.5,1.3-1.2,2.2-2.2,2.8c-1,0.7-2.2,1-3.4,1c-1.7,0-3.2-0.6-4.6-1.8
					c-1.3-1.2-1.9-2.9-1.9-5.1c0-2.2,0.6-3.8,2-5c1.3-1.3,2.9-1.9,4.6-1.9c1.3,0,2.5,0.3,3.5,0.9c1,0.5,1.7,1.3,2.1,2.4l0.2,0.6h6.8
					l-0.2-1.1c-0.7-3-2.2-5.4-4.6-7c-2.3-1.6-5.1-2.5-8-2.4c-2.3,0-4.5,0.6-6.5,1.5c-2,1-3.7,2.6-5.1,4.7c-1.4,2.1-2,4.6-2,7.4
					c0,4.2,1.4,7.5,4.1,9.9c2.7,2.4,5.9,3.6,9.5,3.6c3,0,5.8-0.9,8.1-2.5c2.4-1.7,3.9-4.2,4.6-7.3l0.2-1.1h-7L502.2,210.8z"/>
				<path class="st4" d="M412.6,201.5c-1.1,1.2-2.5,1.8-4.2,1.8h-7.9v-12.6h7.9c1.8,0,3.1,0.6,4.2,1.7c1.1,1.2,1.6,2.7,1.6,4.5
					C414.2,198.8,413.7,200.3,412.6,201.5 M408.4,183.8h-15.5v36.9h7.7v-10.5h7.8c4,0,7.2-1.3,9.7-3.8c2.4-2.5,3.6-5.6,3.6-9.3
					c0-3.7-1.2-6.9-3.6-9.4C415.6,185.1,412.4,183.8,408.4,183.8"/>
				<path class="st4" d="M443.5,207.6c0,2.2-0.6,3.9-1.8,5.1c-1.3,1.2-2.7,1.8-4.5,1.8c-1.8,0-3.3-0.6-4.6-1.8
					c-1.3-1.2-1.9-2.9-1.9-5.1c0-2.2,0.6-3.8,1.8-5c1.2-1.2,2.7-1.8,4.4-1.9c0.1,0,0.2,0,0.2,0c1.7,0,3.1,0.6,4.4,1.7
					C442.9,203.7,443.5,205.4,443.5,207.6 M443.5,195.5c-2-0.9-4.3-1.4-6.6-1.4c-3.6,0.1-6.8,1.3-9.4,3.6c-2.7,2.4-4,5.7-4,9.9
					c0,4.2,1.4,7.6,4.1,10c2.7,2.4,5.9,3.6,9.6,3.6s6.9-1.2,9.6-3.6c2.7-2.4,4.1-5.8,4.1-10c0-2.9-0.7-5.4-2.1-7.5
					C447.3,198,445.6,196.5,443.5,195.5"/>
			</g>
		</g>
		<g>
			<path class="st4" d="M229.8,267h11.3c-0.1-1-0.6-1.8-1.4-2.5c-1.1-0.9-2.4-1.3-4-1.3C232.5,263.2,230.7,264.4,229.8,267
				 M226.2,280.6c-2.8-2.6-4.1-6.1-4-10.4c0.1-4.1,1.4-7.3,4-9.6c2.6-2.3,5.8-3.4,9.5-3.4c4.5,0,7.8,1.4,9.9,4.1
				c2,2.7,2.6,6.3,1.8,10.7l-0.1,0.7h-17.7c0.2,1.5,0.8,2.6,1.9,3.5c1.3,1.1,3,1.7,5.1,1.7c3.1,0.2,5.9-0.3,8.4-1.4l1.1-0.5l1,5.9
				l-0.7,0.3c-3.3,1.5-6.6,2.2-9.9,2.2C232.3,284.4,228.9,283.1,226.2,280.6 M205,264c-0.1,0-0.2,0-0.3,0c-1.8,0-3.2,0.6-4.3,1.8
				c-1.1,1.2-1.7,2.8-1.7,5c0,2,0.5,3.7,1.5,5c0.9,1.3,2.3,1.9,4.2,1.9c1.6,0,2.8-0.5,3.8-1.7c1-1.2,1.5-2.5,1.5-4.2v-6.3
				C208.2,264.4,206.6,264,205,264 M212.2,282.9c-0.5-0.5-0.9-1-1.2-1.7c-1.7,2.1-4.2,3.1-7.5,3.1h-0.3c-3.6,0-6.5-1.3-8.6-3.9
				c-2.1-2.6-3.2-5.9-3.2-9.7c0-3.9,1.2-7.1,3.6-9.6c2.4-2.5,5.4-3.8,8.8-3.8c2,0,4,0.4,5.8,1.3v-13.5h7.3v30.2
				c0,2.1,0.1,2.5,0.2,2.6c0.1,0.1,0.4,0.3,1.4,0.3h0.9l0.1,5.5l-0.8,0.1C215.7,284.4,213.6,284.1,212.2,282.9 M174.3,271.8
				c-0.1,0-0.2,0-0.3,0c-1.2,0-2.2,0.4-3,1c-0.7,0.6-1.1,1.5-1.1,2.6c0,0.8,0.3,1.4,0.9,1.9c0.7,0.5,1.6,0.7,2.6,0.7
				c1.4,0,2.8-0.3,4-1c1.1-0.6,1.7-1.5,1.9-2.6v-1.4C177.8,272.2,176.1,271.8,174.3,271.8 M181.6,282.8c-0.4-0.4-0.7-1-0.9-1.6
				c-0.7,0.8-1.6,1.4-2.7,1.9c-1.8,0.8-3.7,1.2-5.7,1.2c-2.6,0-4.8-0.8-6.7-2.3c-1.9-1.6-2.9-3.6-2.9-6.2c-0.1-3,0.9-5.4,2.9-7.1
				c1.9-1.6,4.4-2.4,7.5-2.4c2.3,0,4.4,0.4,6.3,1.3v-0.9c0-1.2-0.4-2-1.3-2.5c-1-0.6-2.2-0.9-3.6-0.9c-1.5,0-3,0.2-4.4,0.5
				c-1.4,0.3-2.5,0.6-3.2,1l-1.1,0.6l-1.2-5.8l0.6-0.3c2.6-1.3,5.8-2,9.4-2c3.5,0,6.3,0.7,8.5,2.2c2.3,1.5,3.5,4.1,3.5,7.5v9.6
				c0,0.7,0,1.3,0,1.5c0,0.1,0,0.4,0.2,0.8c0.1,0.2,0.1,0.2,0.1,0.2c0.1,0,0.5,0.1,1.1,0l1-0.1l0.2,4.9l-0.8,0.1
				C185.4,284.3,183.1,284.5,181.6,282.8 M139.9,274.8l-8.9-11.3v20.3h-7.7v-37.2h3.5l13.9,17.7l13.9-17.7h3.5v37.2h-7.7v-20.3
				l-8.8,11.3H139.9z"/>
			<g>
				<path class="st4" d="M269.1,248c-0.9,0.8-1.3,1.8-1.3,3.1c0,1.3,0.4,2.4,1.3,3.1c0.8,0.7,1.8,1.1,2.8,1.1h0.2
					c1.1,0,2-0.4,2.8-1.1c0.8-0.8,1.3-1.8,1.3-3c0-1.3-0.4-2.3-1.3-3.1C273.4,246.5,270.8,246.6,269.1,248"/>
				<rect x="268.4" y="257.9" class="st4" width="7.3" height="25.9"/>
				<path class="st4" d="M296.8,257.1c-1.9,0-3.7,0.4-5.4,1.1c-0.9,0.4-1.8,1-2.4,1.7c-0.2-0.6-0.6-1.1-1.1-1.5
					c-1-0.9-2.2-1.2-3.5-1.2c-1.1,0.1-2.4,0.2-3.6,0.4l-0.8,0.1v5.4l1-0.1c1-0.1,1.3,0.1,1.3,0.1c0,0.1,0.3,0.5,0.3,2.5v18.1h7.4
					V269c0-1.7,0.5-3.1,1.5-4.1c1-1,2.2-1.6,3.7-1.6c1.4,0,2.6,0.5,3.5,1.4c0.9,0.9,1.3,2.2,1.3,3.8v15.2h7.4v-15.2
					c0-3.4-0.9-6.1-2.7-8.2C302.9,258.2,300.2,257.1,296.8,257.1"/>
			</g>
			<g>
				<path class="st4" d="M346.7,263.2c-1.1,1.1-2.4,1.6-4.1,1.6h-7.8v-11.2h7.8c1.7,0,3,0.5,4.1,1.6c1.1,1.1,1.6,2.3,1.6,4
					C348.3,260.8,347.7,262.1,346.7,263.2 M348.9,270c1.9-0.9,3.5-2.2,4.7-4c1.4-2.1,2.2-4.4,2.2-7c0-3.5-1.2-6.5-3.6-8.8
					c-2.4-2.4-5.6-3.6-9.6-3.6h-15.5v37.1h7.7v-12.3h6.4l8.8,12.3h7.3v-2.1L348.9,270z"/>
				<path class="st4" d="M386.4,278.5c-1,0.1-1.2-0.1-1.2-0.1c-0.1-0.1-0.3-0.5-0.3-2.5v-18.2h-7.3v14.8c0,1.7-0.5,3-1.5,4
					c-1,1-2.2,1.5-3.8,1.5c-1.3,0-2.4-0.4-3.2-1.4c-0.8-0.9-1.2-2.3-1.2-4v-15h-7.4v15c0,3.4,0.8,6.2,2.3,8.3
					c1.6,2.2,4.2,3.3,7.6,3.3c3.5,0,6.1-1,7.9-2.9c0.1,0.2,0.2,0.4,0.3,0.6c0.4,0.8,0.9,1.3,1.5,1.7c0.6,0.4,1.3,0.6,2.3,0.6
					c0.4,0,0.7,0,1,0c0.4,0,0.8,0,1.1-0.1c0.5-0.1,1.2-0.2,2-0.3l0.8-0.1l-0.1-5.4L386.4,278.5z"/>
				<path class="st4" d="M411.2,270.2c-0.6-0.5-1.5-1-2.6-1.4c-1-0.4-2-0.6-2.8-0.8c-0.8-0.1-1.8-0.3-3.1-0.5
					c-2.5-0.3-3.7-0.7-4.2-0.9c-0.5-0.2-0.8-0.6-0.8-1.2c0-0.4,0.1-1,1-1.6c0.9-0.5,1.9-0.8,3.1-0.8c1.4,0,2.5,0.2,3.5,0.7
					c0.8,0.4,1.1,0.8,1.1,1.6v0.9h6.6l0-0.9c0.1-2.6-1-4.7-3.3-6.2c-2.1-1.4-4.8-2.1-7.9-2.1c-3,0-5.6,0.7-7.8,2.1
					c-2.3,1.5-3.4,3.6-3.4,6.4c0.1,2.7,1.4,4.7,3.8,5.8c1.4,0.7,3.9,1.3,7.7,1.7c1.7,0.2,3,0.5,3.8,0.9c0.6,0.3,0.9,0.7,0.9,1.4
					c0,0.8-0.2,2.9-4.9,2.9c-1.3,0-2.4-0.3-3.3-0.8c-0.8-0.5-1.2-1.1-1.3-2l0-0.9h-7.2l0.1,1c0.2,3.1,1.5,5.4,3.9,6.7
					c2.2,1.3,5,1.9,8.2,1.9c3.1,0,5.8-0.7,8-2.1c2.3-1.5,3.5-3.7,3.5-6.5c0-1.2-0.2-2.4-0.7-3.3
					C412.4,271.5,411.8,270.8,411.2,270.2"/>
				<path class="st4" d="M437.4,270.2c-0.6-0.5-1.5-1-2.6-1.4c-1-0.4-2-0.6-2.8-0.8c-0.8-0.1-1.8-0.3-3.1-0.5
					c-2.5-0.3-3.7-0.7-4.2-0.9c-0.5-0.2-0.8-0.6-0.8-1.2c0-0.4,0.1-1,1-1.6c0.9-0.5,1.9-0.8,3.1-0.8c1.4,0,2.5,0.2,3.5,0.7
					c0.8,0.4,1.1,0.8,1.1,1.6v0.9h6.6l0-0.9c0.1-2.6-1-4.7-3.3-6.2c-2.1-1.4-4.8-2.1-7.9-2.1c-3,0-5.6,0.7-7.8,2.1
					c-2.3,1.5-3.4,3.6-3.4,6.4c0.1,2.7,1.4,4.7,3.8,5.8c1.4,0.7,3.9,1.3,7.7,1.7c1.7,0.2,3,0.5,3.8,0.9c0.6,0.3,0.9,0.7,0.9,1.4
					c0,0.8-0.2,2.9-4.9,2.9c-1.3,0-2.4-0.3-3.3-0.8c-0.8-0.5-1.2-1.1-1.3-2l0-0.9h-7.2l0.1,1c0.2,3.1,1.5,5.4,3.9,6.7
					c2.2,1.3,5,1.9,8.2,1.9c3.1,0,5.8-0.7,8-2.1c2.3-1.5,3.5-3.7,3.5-6.5c0-1.2-0.2-2.4-0.7-3.3
					C438.7,271.5,438.1,270.8,437.4,270.2"/>
				<rect x="444.3" y="257.9" class="st4" width="7.3" height="25.9"/>
				<path class="st4" d="M445.1,248c-0.9,0.8-1.3,1.8-1.3,3.1c0,1.3,0.4,2.4,1.3,3.1c0.8,0.7,1.8,1.1,2.8,1.1h0.2
					c1.1,0,2-0.4,2.8-1.1c0.8-0.8,1.3-1.8,1.3-3c0-1.3-0.4-2.3-1.3-3.1C449.3,246.5,446.7,246.6,445.1,248"/>
				<path class="st4" d="M472.5,274.4c-0.2,1.1-0.9,2-1.9,2.6c-1.2,0.7-2.5,1-4,1c-1,0-1.9-0.2-2.6-0.8c-0.6-0.4-0.9-1-0.9-1.9
					c0-1.1,0.4-2,1.1-2.6c0.8-0.7,1.7-1,3-1c0.1,0,0.2,0,0.3,0c1.7,0,3.4,0.4,5,1.3V274.4z M482.2,278.8l-1,0.1c-0.7,0.1-1,0-1.1,0
					c0,0-0.1,0-0.1-0.2c-0.2-0.4-0.2-0.7-0.2-0.8c0-0.3,0-0.8,0-1.5v-9.6c0-3.4-1.2-6-3.5-7.5c-2.2-1.5-5.1-2.2-8.5-2.2
					c-3.6,0-6.8,0.7-9.4,2l-0.6,0.3l1.2,5.8l1.1-0.6c0.8-0.4,1.8-0.7,3.2-1c1.4-0.3,2.9-0.5,4.4-0.5c1.4,0,2.6,0.3,3.6,0.9
					c0.9,0.6,1.3,1.4,1.3,2.6v0.9c-1.9-0.8-4-1.2-6.3-1.2c-3,0-5.5,0.8-7.5,2.4c-2,1.6-2.9,4-2.9,7.1c0,2.6,1,4.7,2.9,6.2
					c1.9,1.5,4.1,2.3,6.7,2.3c2,0,3.9-0.4,5.7-1.2c1-0.5,1.9-1.1,2.7-1.9c0.2,0.6,0.5,1.2,0.9,1.6c1.5,1.7,3.8,1.5,6.8,1.1l0.8-0.1
					L482.2,278.8z"/>
			</g>
		</g>
	</g>
</g>
</svg>
