<svg xmlns="http://www.w3.org/2000/svg" viewBox="0 0 171.45 28.35"><defs><style>.cls-1{fill:#262424;}</style></defs><title>Ресурс 1</title><g id="Слой_2" data-name="Слой 2"><g id="Layer_1" data-name="Layer 1"><path class="cls-1" d="M7.41,28l6.27-10.86a3.28,3.28,0,0,0,.07-2.94l-2.88-5L0,28Z"/><path class="cls-1" d="M28.69,21.65H16.15a3.3,3.3,0,0,0-2.58,1.41l-2.88,5H32.4Z"/><path class="cls-1" d="M12.49,6.41l6.27,10.86a3.29,3.29,0,0,0,2.51,1.53H27L16.19,0Z"/><path class="cls-1" d="M49,12.51c0-.28.22-9.8.22-9.8l-2.59,9.8h-2L42,2.71s.22,9.41.22,9.8H40.08V.58h3.24l2.33,8.85L47.95.58h3.23V12.51Z"/><path class="cls-1" d="M64.08,12.51H61.85V4.7l-5.34,6.39v1.42H54.29V.58h2.23V8.32l5.34-6.38V.58h2.23Z"/><path class="cls-1" d="M74.57,12.51V7.08H69.46v5.42H67.21V.58h2.25V5.07h5.12V.58h2.25V12.51Z"/><path class="cls-1" d="M89.41.58V12.51H87.18V2.61h-5v9.9H79.95V.58Z"/><path class="cls-1" d="M97.11.58c2.47,0,4.24,1.52,4.24,4,0,2.16-1.25,3.9-4.36,3.9H94.71v4.05H92.48V.58Zm-2.4,6h2c1.59,0,2.38-.74,2.38-2.14,0-1.92-1.55-2-2.64-2h-1.7Z"/><path class="cls-1" d="M108.53.28c3.63,0,5.71,3,5.71,6.2,0,2.7-1.47,6.33-5.76,6.33-3.51,0-5.67-2.91-5.67-6.25C102.8,3.07,105.08.28,108.53.28Zm0,10.45c1.77,0,3.45-1.37,3.45-4.07,0-2.13-1.11-4.34-3.48-4.34-2,0-3.41,1.53-3.41,4.15C105.1,8.33,106,10.73,108.55,10.73Z"/><path class="cls-1" d="M125.39,12.51c0-.28.22-9.8.22-9.8L123,12.51h-2l-2.58-9.8s.22,9.41.22,9.8h-2.18V.58h3.24L122,9.43l2.3-8.85h3.22V12.51Z"/><path class="cls-1" d="M135.23,2.59v9.91H133V2.59h-3.24v-2h8.76v2Z"/><path class="cls-1" d="M145.58.28c3.63,0,5.71,3,5.71,6.2,0,2.7-1.47,6.33-5.76,6.33-3.51,0-5.67-2.91-5.67-6.25C139.86,3.07,142.14.28,145.58.28Zm0,10.45c1.77,0,3.44-1.37,3.44-4.07,0-2.13-1.11-4.34-3.48-4.34-2,0-3.41,1.53-3.41,4.15C142.15,8.33,143,10.73,145.6,10.73Z"/><path class="cls-1" d="M158.25.58c2.47,0,4.24,1.52,4.24,4,0,2.16-1.25,3.9-4.36,3.9h-2.28v4.05h-2.23V.58Zm-2.4,6h2c1.59,0,2.38-.74,2.38-2.14,0-1.92-1.56-2-2.64-2h-1.7Z"/><path class="cls-1" d="M171.45.58v2h-4.9v9.9h-2.23V.58Z"/><path class="cls-1" d="M44.71,16.11c2.47,0,4.24,1.52,4.24,4,0,2.16-1.25,3.9-4.36,3.9H42.31V28H40.08V16.11Zm-2.4,6h2c1.59,0,2.38-.74,2.38-2.15,0-1.92-1.55-2-2.63-2H42.31Z"/><path class="cls-1" d="M56.21,15.81c3.63,0,5.71,3,5.71,6.2,0,2.7-1.47,6.33-5.76,6.33-3.51,0-5.68-2.91-5.68-6.25C50.48,18.6,52.77,15.81,56.21,15.81Zm0,10.45c1.78,0,3.45-1.37,3.45-4.07,0-2.13-1.11-4.34-3.48-4.34-2,0-3.41,1.53-3.41,4.16C52.78,23.87,53.68,26.27,56.23,26.27Z"/><path class="cls-1" d="M74.47,24.71a5.4,5.4,0,0,1-5.15,3.63c-2.82,0-5.57-1.92-5.57-6.39,0-2.65,1.5-6.15,5.66-6.15a4.74,4.74,0,0,1,4.85,3.68L72,20.07a2.49,2.49,0,0,0-2.55-2.21c-1.94,0-3.33,1.48-3.33,4.14,0,1.62.66,4.24,3.31,4.24a3.1,3.1,0,0,0,2.89-2.4Z"/><path class="cls-1" d="M86.79,24.71a5.4,5.4,0,0,1-5.15,3.63c-2.82,0-5.57-1.92-5.57-6.39,0-2.65,1.5-6.15,5.66-6.15a4.74,4.74,0,0,1,4.85,3.68l-2.21.58a2.49,2.49,0,0,0-2.55-2.21c-1.94,0-3.33,1.48-3.33,4.14,0,1.62.66,4.24,3.31,4.24a3.1,3.1,0,0,0,2.89-2.4Z"/><path class="cls-1" d="M98.63,28H96.4v-7.8l-5.34,6.39V28H88.83V16.11h2.23v7.74l5.34-6.39V16.11h2.23Z"/><path class="cls-1" d="M111.55,28h-2.23v-7.8L104,26.62V28h-2.23V16.11H104v7.74l5.34-6.39V16.11h2.23Z"/></g></g></svg>