<?xml version="1.0" encoding="utf-8"?>
<!-- Generator: Adobe Illustrator 21.0.2, SVG Export Plug-In . SVG Version: 6.00 Build 0)  -->
<svg version="1.1" id="Layer_1" xmlns="http://www.w3.org/2000/svg" xmlns:xlink="http://www.w3.org/1999/xlink" x="0px" y="0px"
	 viewBox="0 0 320 191" style="enable-background:new 0 0 320 191;" xml:space="preserve">
<style type="text/css">
	.st0{fill:none;stroke:#00315C;stroke-width:0.371;}
	.st1{fill:#AC4B5E;}
	.st2{fill:#0F5083;}
	.st3{fill:#262424;}
	.st4{fill:none;stroke:#262424;stroke-width:0.57;stroke-miterlimit:10;}
	.st5{fill:#2B54A1;}
	.st6{fill:#4E8FCC;}
	.st7{fill:#00315C;}
	.st8{fill:#4674B7;}
	.st9{fill:#CB2128;}
	.st10{fill:#1C7CB2;}
</style>
<g>
	<polyline class="st0" points="124.4,70.9 214.9,70.9 226.1,65 316.7,65 	"/>
	<polygon class="st1" points="144,90.6 131.2,95.6 124.4,90.6 	"/>
	<polygon class="st2" points="144.2,90.6 139,101.3 131.2,95.6 144,90.6 	"/>
	<g>
		<path class="st3" d="M155.1,96.8h4.2c-0.3,1.7-1.6,2.6-3.2,2.6c-1,0-1.8-0.4-2.4-0.8L153,100c0.7,0.6,1.8,1,3.1,1
			c3,0,4.9-1.9,4.9-4.8c0-2.9-1.9-4.8-4.7-4.8c-1.4,0-2.5,0.5-3.2,1l0.6,1.2c0.7-0.5,1.4-0.7,2.2-0.7c1.8,0,3,0.9,3.3,2.4h-4.1V96.8
			z M163.7,100.8h1.6V96l3.8,4.8h2.1l-4.1-5l3.8-4.3h-2l-3.7,4.4v-4.4h-1.6V100.8z M179.3,98.7c-0.6,0.5-1.4,0.7-2.2,0.7
			c-1.9,0-3.2-1.3-3.2-3.3c0-2,1.3-3.3,3-3.3c0.9,0,1.5,0.3,2.1,0.6l0.7-1.2c-0.6-0.6-1.6-0.9-2.8-0.9c-3.1,0-4.8,2.1-4.8,4.8
			c0,2.9,2,4.8,4.8,4.8c1.2,0,2.4-0.4,3-1L179.3,98.7z M181.1,100.8h1.6l1-2.4h4l1,2.4h1.7l-3.9-9.3H185L181.1,100.8z M185.7,93.6
			l1.4,3.3h-2.7L185.7,93.6z M194.2,100.8v-3.4c0.4,0,0.9,0,1.2,0c2.2,0,3.4-1.4,3.4-3c0-1.5-0.9-3-3.6-3c-0.7,0-2.1,0-2.6,0v9.3
			H194.2z M195.3,93c1.1,0,1.7,0.5,1.7,1.4c0,1-0.8,1.5-1.7,1.5c-0.4,0-0.8,0-1.2-0.1v-2.9C194.6,93,195,93,195.3,93"/>
		<path class="st4" d="M155.1,96.8h4.2c-0.3,1.7-1.6,2.6-3.2,2.6c-1,0-1.8-0.4-2.4-0.8L153,100c0.7,0.6,1.8,1,3.1,1
			c3,0,4.9-1.9,4.9-4.8c0-2.9-1.9-4.8-4.7-4.8c-1.4,0-2.5,0.5-3.2,1l0.6,1.2c0.7-0.5,1.4-0.7,2.2-0.7c1.8,0,3,0.9,3.3,2.4h-4.1V96.8
			z M163.7,100.8h1.6V96l3.8,4.8h2.1l-4.1-5l3.8-4.3h-2l-3.7,4.4v-4.4h-1.6V100.8z M179.3,98.7c-0.6,0.5-1.4,0.7-2.2,0.7
			c-1.9,0-3.2-1.3-3.2-3.3c0-2,1.3-3.3,3-3.3c0.9,0,1.5,0.3,2.1,0.6l0.7-1.2c-0.6-0.6-1.6-0.9-2.8-0.9c-3.1,0-4.8,2.1-4.8,4.8
			c0,2.9,2,4.8,4.8,4.8c1.2,0,2.4-0.4,3-1L179.3,98.7z M181.1,100.8h1.6l1-2.4h4l1,2.4h1.7l-3.9-9.3H185L181.1,100.8z M185.7,93.6
			l1.4,3.3h-2.7L185.7,93.6z M194.2,100.8v-3.4c0.4,0,0.9,0,1.2,0c2.2,0,3.4-1.4,3.4-3c0-1.5-0.9-3-3.6-3c-0.7,0-2.1,0-2.6,0v9.3
			H194.2z M195.3,93c1.1,0,1.7,0.5,1.7,1.4c0,1-0.8,1.5-1.7,1.5c-0.4,0-0.8,0-1.2-0.1v-2.9C194.6,93,195,93,195.3,93"/>
	</g>
	<polygon class="st5" points="144,113.2 131.2,118.3 124.4,113.2 	"/>
	<polygon class="st6" points="144.2,113.2 139,124 131.2,118.3 144,113.2 	"/>
	<g>
		<path class="st5" d="M155.6,123.5v-3.4c0.4,0,0.9,0,1.2,0c2.2,0,3.4-1.4,3.4-3c0-1.5-0.9-3-3.6-3c-0.7,0-2.1,0-2.6,0v9.3H155.6z
			 M156.8,115.7c1.1,0,1.7,0.5,1.7,1.4c0,1-0.8,1.5-1.7,1.5c-0.4,0-0.8,0-1.2-0.1v-2.9C156.1,115.7,156.5,115.7,156.8,115.7
			 M162.1,118.8c0,2.9,2.1,4.8,4.8,4.8c2.8,0,4.8-2,4.8-4.8c0-2.9-2.1-4.8-4.8-4.8C164.1,114,162.1,116.1,162.1,118.8 M163.9,118.8
			c0-1.9,1.3-3.3,3.1-3.3c1.8,0,3.1,1.3,3.1,3.3c0,1.8-1.2,3.3-3.1,3.3C165.2,122.1,163.9,120.7,163.9,118.8 M180.9,121.3
			c-0.6,0.5-1.4,0.7-2.2,0.7c-1.9,0-3.2-1.3-3.2-3.3c0-2,1.3-3.3,3-3.3c0.9,0,1.5,0.3,2.1,0.6l0.7-1.2c-0.6-0.6-1.6-0.9-2.8-0.9
			c-3.1,0-4.7,2.1-4.7,4.8c0,2.9,1.9,4.8,4.8,4.8c1.2,0,2.4-0.4,3-1L180.9,121.3z M185.1,119.5h4.2c-0.3,1.7-1.6,2.6-3.2,2.6
			c-1,0-1.8-0.4-2.4-0.8l-0.7,1.4c0.7,0.6,1.8,1,3.1,1c3,0,4.9-1.9,4.9-4.8c0-2.9-1.9-4.8-4.7-4.8c-1.4,0-2.5,0.5-3.2,1l0.6,1.2
			c0.6-0.5,1.4-0.7,2.2-0.7c1.8,0,3,0.9,3.3,2.4h-4.1V119.5z M193.7,123.5h1.6v-4.8l3.8,4.8h2.1l-4.1-5l3.8-4.3h-2l-3.7,4.4v-4.4
			h-1.6V123.5z M209.3,121.3c-0.6,0.5-1.4,0.7-2.2,0.7c-1.9,0-3.2-1.3-3.2-3.3c0-2,1.3-3.3,3-3.3c0.9,0,1.5,0.3,2.1,0.6l0.7-1.2
			c-0.6-0.6-1.6-0.9-2.8-0.9c-3.1,0-4.8,2.1-4.8,4.8c0,2.9,1.9,4.8,4.8,4.8c1.2,0,2.4-0.4,3-1L209.3,121.3z M213.8,123.5l4.9-6.6
			v6.6h1.6v-9.3h-1.4l-4.9,6.6v-6.6h-1.6v9.3H213.8z M223.6,123.5h1.6v-6.7l3,4.1h0.2l2.9-4.1v6.7h1.6v-9.3h-1.5l-3,4.3l-3.2-4.3
			h-1.6V123.5z M236.4,123.5c0.5,0,1.3,0.1,2.4,0.1c2.3,0,3.6-1.1,3.6-3c0-1.7-1.2-2.8-3.1-2.8c-0.3,0-0.9,0-1.2,0.1v-2.1h3.8v-1.5
			h-5.4V123.5z M239.1,119.2c1.1,0,1.6,0.6,1.6,1.4c0,0.8-0.5,1.4-1.7,1.4c-0.3,0-0.7,0-1-0.1v-2.6
			C238.4,119.2,238.8,119.2,239.1,119.2 M244.1,123.5h1.7l1-2.4h4l1,2.4h1.7l-3.9-9.3h-1.4L244.1,123.5z M248.7,116.3l1.4,3.3h-2.7
			L248.7,116.3z M261.5,123.5h1.6v-9.3h-1.6v3.8h-4.2v-3.8h-1.6v9.3h1.6v-4h4.2V123.5z M266.5,123.5h1.6v-4.8l3.8,4.8h2.1l-4.1-5
			l3.8-4.3h-2l-3.7,4.4v-4.4h-1.6V123.5z"/>
		<path class="st7" d="M243.5,8.9c0.1,1.4,1.3,2.3,3.3,2.3c1.8,0,3.1-0.9,3.2-2.3h-1.9c-0.1,0.7-0.6,1-1.3,1c-0.8,0-1.3-0.3-1.4-1
			H243.5z M243.5,23.2l6-8.1v8.1h2V11.7h-1.8l-6,8.2v-8.2h-2v11.5H243.5z M230.5,23.2l6-8.1v8.1h2V11.7h-1.8l-6,8.2v-8.2h-2v11.5
			H230.5z M217.7,23.2h2v-5.9l4.7,5.9h2.6l-5-6.1l4.7-5.3h-2.4l-4.5,5.4v-5.4h-2V23.2z M214.9,20.6c-0.8,0.6-1.8,0.9-2.7,0.9
			c-2.3,0-4-1.6-4-4c0-2.5,1.6-4,3.7-4c1.1,0,1.9,0.3,2.6,0.8l0.9-1.5c-0.8-0.7-2-1.2-3.5-1.2c-3.8,0-5.9,2.6-5.9,5.9
			c0,3.6,2.4,5.9,5.9,5.9c1.5,0,3-0.5,3.7-1.3L214.9,20.6z M195.8,8.9c0.1,1.4,1.3,2.3,3.3,2.3c1.8,0,3.1-0.9,3.2-2.3h-1.9
			c-0.1,0.7-0.6,1-1.3,1c-0.8,0-1.3-0.3-1.4-1H195.8z M195.7,23.2l6-8.1v8.1h2V11.7H202l-6,8.2v-8.2h-2v11.5H195.7z M182.8,23.2
			l6-8.1v8.1h2V11.7H189l-6,8.2v-8.2h-2v11.5H182.8z M178.2,20.6c-0.8,0.6-1.8,0.9-2.7,0.9c-2.3,0-4-1.6-4-4c0-2.5,1.6-4,3.7-4
			c1.1,0,1.9,0.3,2.6,0.8l0.9-1.5c-0.8-0.7-2-1.2-3.5-1.2c-3.8,0-5.9,2.6-5.9,5.9c0,3.6,2.4,5.9,5.9,5.9c1.5,0,3-0.5,3.7-1.3
			L178.2,20.6z M167.5,20.6c-0.8,0.6-1.8,0.9-2.7,0.9c-2.3,0-4-1.6-4-4c0-2.5,1.6-4,3.7-4c1.1,0,1.9,0.3,2.6,0.8l0.9-1.5
			c-0.8-0.7-2-1.2-3.5-1.2c-3.8,0-5.9,2.6-5.9,5.9c0,3.6,2.4,5.9,5.9,5.9c1.5,0,3-0.5,3.7-1.3L167.5,20.6z M147.3,17.4
			c0-2.4,1.6-4,3.8-4c2.2,0,3.9,1.7,3.9,4c0,2.3-1.4,4-3.9,4C149,21.5,147.3,19.7,147.3,17.4 M145.2,17.4c0,3.6,2.6,5.9,6,5.9
			s6-2.5,6-5.9c0-3.6-2.6-5.9-6-5.9C147.7,11.5,145.2,14.1,145.2,17.4 M139.5,13.6c1.4,0,2.1,0.6,2.1,1.8c0,1.3-0.9,1.9-2.1,1.9
			c-0.5,0-1,0-1.4-0.1v-3.5C138.6,13.6,139.1,13.6,139.5,13.6 M138,23.2V19c0.5,0,1.1,0,1.5,0c2.7,0,4.2-1.8,4.2-3.7
			c0-1.9-1.1-3.7-4.4-3.7c-0.8,0-2.6,0-3.3,0v11.5H138z"/>
		<path class="st7" d="M144.8,39.6c0-3.6-2.4-5.9-5.8-5.9c-1.8,0-3.1,0.6-4,1.3l0.8,1.5c0.8-0.6,1.8-0.9,2.7-0.9
			c2.2,0,3.7,1.1,4.1,3h-5.1v1.9h5.2c-0.3,2.1-2,3.2-4,3.2c-1.2,0-2.2-0.4-3-1l-0.9,1.7c0.8,0.7,2.3,1.2,3.9,1.2
			C142.5,45.6,144.8,43.2,144.8,39.6 M156.4,45.4l-5-6.1l4.7-5.3h-2.4l-4.5,5.4v-5.4h-2v11.5h2v-5.9l4.7,5.9H156.4z M159.4,39.7
			c0-2.5,1.6-4,3.7-4c1.1,0,1.9,0.3,2.6,0.8l0.9-1.5c-0.8-0.7-2-1.2-3.5-1.2c-3.8,0-5.9,2.6-5.9,5.9c0,3.6,2.4,5.9,5.9,5.9
			c1.5,0,3-0.5,3.7-1.3l-0.8-1.5c-0.8,0.6-1.8,0.9-2.7,0.9C161,43.7,159.4,42,159.4,39.7 M176,45.4h2V33.9h-9.2v11.5h2v-9.6h5.1
			V45.4z M190.2,39.7c0,2.3-1.4,4-3.9,4c-2.1,0-3.8-1.7-3.8-4c0-2.4,1.6-4,3.8-4C188.5,35.6,190.2,37.3,190.2,39.7 M192.3,39.7
			c0-3.6-2.6-5.9-6-5.9c-3.5,0-6,2.6-6,5.9c0,3.6,2.6,5.9,6,5.9C189.7,45.6,192.3,43.1,192.3,39.7 M200.2,37.6
			c0,1.3-0.9,1.9-2.1,1.9c-0.5,0-1,0-1.4-0.1v-3.5c0.5,0,1,0,1.4,0C199.5,35.8,200.2,36.4,200.2,37.6 M202.4,37.6
			c0-1.9-1.1-3.7-4.4-3.7c-0.8,0-2.6,0-3.3,0v11.5h2v-4.1c0.5,0,1.1,0,1.5,0C200.9,41.3,202.4,39.5,202.4,37.6 M209,35.8h3.7v-1.9
			h-9.5v1.9h3.7v9.6h2V35.8z M221.7,45.4h2V33.9h-2v4.7h-5.2v-4.7h-2v11.5h2v-4.9h5.2V45.4z M232.3,41.5c0,1.3-0.8,2-2.3,2
			c-0.4,0-0.7,0-1.1,0v-3.8c0.5,0,0.8-0.1,1.1-0.1C231.5,39.7,232.3,40.3,232.3,41.5 M234.4,41.5c0-2.2-1.4-3.7-4.2-3.7
			c-0.3,0-0.8,0-1.3,0.1v-3.9h-2v11.5c0.7,0,1.8,0,2.9,0C232.7,45.4,234.4,43.9,234.4,41.5 M235.9,45.4h2V33.9h-2V45.4z M249.4,31.1
			h-1.9c-0.1,0.7-0.6,1-1.3,1c-0.8,0-1.3-0.3-1.4-1h-1.9c0.1,1.4,1.3,2.3,3.3,2.3C248,33.5,249.3,32.5,249.4,31.1 M248.9,45.4h2
			V33.9h-1.8l-6,8.2v-8.2h-2v11.5h1.8l6-8.1V45.4z"/>
		<path class="st7" d="M268.6,47.4h1.9v-3.9H269v-9.6h-2v9.6h-5v-9.6h-2v11.5h8.7V47.4z M272.5,45.4h6.8v-1.9h-4.8v-3h4.1v-1.9h-4.1
			v-2.9h4.6v-1.9h-6.6V45.4z M289.2,45.4h2V33.9h-2v4.7H284v-4.7h-2v11.5h2v-4.9h5.2V45.4z M298.7,35.8h3.7v-1.9H293v1.9h3.7v9.6h2
			V35.8z M309.8,37.6c0,1.3-0.9,1.9-2.1,1.9c-0.5,0-1,0-1.4-0.1v-3.5c0.5,0,1,0,1.4,0C309,35.8,309.8,36.4,309.8,37.6 M311.9,37.6
			c0-1.9-1.1-3.7-4.4-3.7c-0.8,0-2.6,0-3.3,0v11.5h2v-4.1c0.5,0.1,1.1,0.1,1.5,0.1C310.4,41.3,311.9,39.5,311.9,37.6"/>
	</g>
	<polygon class="st8" points="56.9,0 50.1,2.5 48.9,0 	"/>
	<polygon class="st9" points="48.9,0 50.1,2.5 44.3,4.7 	"/>
	<polygon class="st8" points="77.3,0.6 82.8,8.3 62,6.5 	"/>
	<polygon class="st8" points="111.4,0 103.1,3.3 98.7,0 	"/>
	<polygon class="st8" points="44.3,13.1 37.8,21 29.5,20.1 	"/>
	<polygon class="st9" points="37.8,21 29.5,30.7 29.5,20.1 	"/>
	<polygon class="st9" points="111.5,0 108.1,6.9 103.1,3.3 111.4,0 	"/>
	<polygon class="st8" points="13.3,37 12.6,44.9 0.3,51.5 	"/>
	<polygon class="st9" points="12.6,44.9 11.7,53.8 0.2,51.6 	"/>
	<polygon class="st8" points="87.2,15.5 98.8,29.6 79.4,27.6 	"/>
	<polygon class="st9" points="98.8,29.6 70.6,41.4 79.4,27.6 	"/>
	<polygon class="st9" points="56.7,46.5 29.4,58 29.4,40.3 	"/>
	<polygon class="st8" points="90.2,51.7 82.2,68.1 78,56.8 	"/>
	<polygon class="st9" points="78,56.8 82.2,68.1 61.6,63.9 	"/>
	<polygon class="st8" points="48.4,22.5 64.5,16.2 68.9,24.6 	"/>
	<polygon class="st9" points="48.4,22.5 68.9,24.6 51,31.8 	"/>
	<path class="st10" d="M316.5,185.4H312l1.3-4l0.9-2.6h0.1l0.9,2.7L316.5,185.4z M319.7,189.9c0.1,0,0.2,0,0.2-0.1
		c0-0.1,0-0.2,0-0.2l-4.4-11.9c-0.1-0.3-0.2-0.5-0.3-0.6c-0.1-0.1-0.4-0.2-0.7-0.2H314c-0.3,0-0.5,0.1-0.6,0.2
		c-0.1,0.1-0.2,0.3-0.4,0.6l-4.4,11.9c0,0.1,0,0.2,0,0.2c0,0.1,0.1,0.1,0.2,0.1h1.3c0.2,0,0.3-0.1,0.4-0.3l1-2.7h5.5l1,2.7
		c0.1,0.1,0.1,0.2,0.2,0.2c0.1,0,0.2,0,0.3,0H319.7z M304.9,189.6c0,0.1,0,0.2,0.1,0.3c0.1,0,0.2,0.1,0.3,0.1h1c0.1,0,0.2,0,0.3-0.1
		c0.1,0,0.1-0.1,0.1-0.3v-11.7c0-0.3-0.1-0.5-0.2-0.7c-0.1-0.2-0.4-0.2-0.8-0.2h-0.5c-0.3,0-0.5,0-0.6,0.1c-0.2,0.1-0.3,0.3-0.4,0.6
		c0,0.1-0.1,0.3-0.3,0.6c-0.1,0.3-0.3,0.7-0.5,1.1c-0.2,0.4-0.4,0.9-0.6,1.4c-0.2,0.5-0.4,1-0.6,1.4c-0.2,0.4-0.4,0.8-0.5,1.2
		c-0.1,0.3-0.2,0.6-0.3,0.7c0,0-0.1,0.2-0.2,0.5c-0.1,0.3-0.2,0.6-0.4,0.9c-0.1,0.3-0.3,0.6-0.4,0.9c-0.1,0.3-0.2,0.4-0.2,0.5h-0.1
		c0,0-0.1-0.2-0.2-0.5c-0.1-0.3-0.2-0.6-0.4-0.9c-0.1-0.3-0.3-0.6-0.4-0.9c-0.1-0.3-0.2-0.4-0.2-0.5l-2.7-6.3
		c-0.1-0.3-0.3-0.5-0.4-0.6c-0.1-0.1-0.4-0.1-0.7-0.1h-0.5c-0.4,0-0.6,0.1-0.8,0.2c-0.1,0.2-0.2,0.4-0.2,0.7v11.7
		c0,0.1,0,0.2,0.1,0.3c0.1,0,0.2,0.1,0.3,0.1h1c0.1,0,0.2,0,0.3-0.1c0.1,0,0.1-0.1,0.1-0.3v-9.4h0.1l1,2.4c0,0.1,0.1,0.3,0.2,0.5
		c0.1,0.3,0.3,0.6,0.4,0.9c0.1,0.3,0.3,0.7,0.5,1.1c0.2,0.4,0.3,0.8,0.5,1.1c0.1,0.3,0.3,0.7,0.4,0.9c0.1,0.3,0.2,0.4,0.2,0.5
		c0.1,0.3,0.2,0.5,0.4,0.6s0.4,0.2,0.7,0.2h0.6c0.3,0,0.5-0.1,0.6-0.2c0.1-0.1,0.2-0.3,0.4-0.6c0-0.1,0.1-0.3,0.2-0.5
		c0.1-0.3,0.3-0.6,0.4-0.9c0.2-0.4,0.3-0.7,0.5-1.1c0.2-0.4,0.3-0.8,0.5-1.1c0.1-0.4,0.3-0.7,0.4-0.9c0.1-0.3,0.2-0.4,0.2-0.5
		c0,0,0.1-0.2,0.2-0.4c0.1-0.3,0.2-0.5,0.3-0.8c0.1-0.3,0.2-0.6,0.3-0.8c0.1-0.3,0.2-0.4,0.2-0.4h0.1V189.6z M291.9,177.2
		c0-0.1,0-0.1,0-0.2c0,0-0.1-0.1-0.2-0.1h-1.2c-0.1,0-0.2,0-0.2,0c-0.1,0-0.1,0.1-0.1,0.2l-1.9,4.7l-1.3,3.3h-0.1l-1.3-3.2l-2-4.8
		c0-0.1-0.1-0.1-0.1-0.2c0,0-0.1-0.1-0.3-0.1h-1.4c-0.2,0-0.3,0.1-0.2,0.2l3.8,8.5c0.1,0.3,0.3,0.5,0.4,0.6c0.1,0.1,0.3,0.1,0.5,0.1
		h0.3l-0.5,1.3c-0.2,0.4-0.4,0.7-0.7,0.9c-0.3,0.2-0.6,0.2-0.9,0.2c-0.2,0-0.4,0-0.6,0c-0.2,0-0.4,0-0.7-0.1c-0.1,0-0.2,0-0.2,0
		c0,0-0.1,0.1-0.1,0.2l-0.2,0.9c0,0.1,0,0.1,0,0.2c0,0,0.1,0.1,0.2,0.1c0.3,0.1,0.6,0.1,0.9,0.2c0.3,0,0.5,0,0.7,0
		c0.4,0,0.8,0,1.1-0.1c0.3-0.1,0.6-0.2,0.9-0.4c0.3-0.2,0.5-0.4,0.7-0.7c0.2-0.3,0.4-0.7,0.6-1.1L291.9,177.2z M277.9,182.6
		c-0.5,0.4-1.1,0.6-2.1,0.6h-3.3v-4.7h3.3c0.5,0,1,0.1,1.4,0.2c0.4,0.2,0.6,0.3,0.9,0.6c0.2,0.2,0.4,0.5,0.4,0.8
		c0.1,0.3,0.1,0.5,0.1,0.8C278.6,181.6,278.4,182.2,277.9,182.6 M270.8,189.6c0,0.1,0,0.2,0.1,0.3c0.1,0,0.2,0.1,0.3,0.1h1
		c0.1,0,0.2,0,0.3-0.1c0.1,0,0.1-0.1,0.1-0.3v-4.9h3.6c0.9,0,1.6-0.1,2.2-0.4c0.6-0.3,1-0.6,1.3-1c0.3-0.4,0.5-0.8,0.6-1.3
		c0.1-0.5,0.2-0.8,0.2-1.2c0-0.6-0.1-1.1-0.3-1.6c-0.2-0.5-0.5-0.9-0.9-1.2c-0.4-0.3-0.8-0.6-1.3-0.8c-0.5-0.2-1.1-0.3-1.7-0.3h-4.5
		c-0.4,0-0.6,0.1-0.8,0.2c-0.1,0.2-0.2,0.4-0.2,0.7V189.6z M266,185.4c-0.1,0.6-0.4,1.2-0.7,1.6c-0.3,0.5-0.7,0.9-1.2,1.1
		c-0.5,0.3-1.1,0.4-1.9,0.4c-0.8,0-1.4-0.1-1.9-0.4c-0.5-0.3-0.9-0.6-1.2-1.1c-0.3-0.5-0.5-1-0.7-1.6c-0.1-0.6-0.2-1.3-0.2-2.1
		c0-0.7,0.1-1.3,0.2-2c0.2-0.6,0.4-1.2,0.7-1.6c0.3-0.5,0.7-0.8,1.3-1.1c0.5-0.3,1.1-0.4,1.8-0.4c0.8,0,1.4,0.1,1.9,0.4
		c0.5,0.3,0.9,0.7,1.2,1.1c0.3,0.5,0.5,1,0.6,1.7c0.1,0.6,0.2,1.3,0.2,1.9C266.2,184.1,266.2,184.7,266,185.4 M267.7,180.6
		c-0.2-0.8-0.6-1.5-1.1-2.1c-0.5-0.6-1.1-1-1.8-1.3c-0.7-0.3-1.6-0.5-2.5-0.5c-0.8,0-1.6,0.1-2.3,0.4c-0.7,0.3-1.3,0.7-1.8,1.3
		c-0.5,0.6-0.9,1.3-1.2,2.1c-0.3,0.8-0.4,1.8-0.4,2.9c0,2.1,0.5,3.8,1.4,4.9c1,1.1,2.4,1.7,4.3,1.7c1.9,0,3.4-0.6,4.4-1.7
		c1-1.2,1.5-2.8,1.5-5C268.1,182.3,267.9,181.4,267.7,180.6 M248,188.8c0.9-0.1,1.7-0.3,2.5-0.6c0.8-0.3,1.4-0.7,1.9-1.2
		c0.5-0.5,1-1,1.3-1.7c0.3-0.7,0.4-1.4,0.4-2.2s-0.1-1.5-0.4-2.2c-0.3-0.7-0.7-1.2-1.2-1.7c-0.5-0.5-1.2-0.9-1.9-1.1
		c-0.8-0.3-1.6-0.5-2.6-0.5v-0.4c0-0.1,0-0.2-0.1-0.2c-0.1,0-0.1,0-0.2,0h-1.2c-0.1,0-0.2,0-0.2,0c-0.1,0-0.1,0.1-0.1,0.2v0.4
		c-0.9,0.1-1.7,0.3-2.5,0.6c-0.7,0.3-1.4,0.7-1.9,1.2c-0.5,0.5-0.9,1-1.2,1.7c-0.3,0.7-0.4,1.4-0.4,2.2c0,1.6,0.5,2.9,1.6,3.9
		c1,1,2.5,1.6,4.5,1.7v0.8c0,0.1,0,0.2,0.1,0.2c0.1,0,0.1,0,0.2,0h1.2c0.1,0,0.2,0,0.2,0c0.1,0,0.1-0.1,0.1-0.2V188.8z M246.2,187.4
		c-0.8-0.1-1.4-0.2-2-0.5c-0.5-0.2-1-0.5-1.4-0.9c-0.4-0.4-0.6-0.8-0.8-1.3c-0.2-0.5-0.3-1-0.3-1.5c0-0.5,0.1-1.1,0.3-1.5
		c0.2-0.5,0.5-0.9,0.8-1.3c0.4-0.4,0.8-0.7,1.4-0.9c0.5-0.2,1.2-0.4,1.9-0.5V187.4z M248,179c0.8,0,1.4,0.2,2,0.4
		c0.6,0.2,1,0.5,1.4,0.9c0.4,0.4,0.6,0.8,0.8,1.3c0.2,0.5,0.3,1,0.3,1.6s-0.1,1.1-0.3,1.6c-0.2,0.5-0.5,0.9-0.8,1.3
		c-0.4,0.4-0.8,0.7-1.4,0.9c-0.6,0.2-1.2,0.4-2,0.4V179z M230.3,182.6c-0.5,0.4-1.1,0.6-2.1,0.6h-3.3v-4.7h3.3c0.5,0,1,0.1,1.4,0.2
		c0.4,0.2,0.6,0.3,0.9,0.6c0.2,0.2,0.4,0.5,0.4,0.8c0.1,0.3,0.1,0.5,0.1,0.8C230.9,181.6,230.7,182.2,230.3,182.6 M223.1,189.6
		c0,0.1,0,0.2,0.1,0.3c0.1,0,0.2,0.1,0.3,0.1h1c0.1,0,0.2,0,0.3-0.1c0.1,0,0.1-0.1,0.1-0.3v-4.9h3.6c0.9,0,1.6-0.1,2.2-0.4
		c0.6-0.3,1-0.6,1.3-1c0.3-0.4,0.5-0.8,0.6-1.3c0.1-0.5,0.2-0.8,0.2-1.2c0-0.6-0.1-1.1-0.3-1.6c-0.2-0.5-0.5-0.9-0.9-1.2
		c-0.4-0.3-0.8-0.6-1.3-0.8c-0.5-0.2-1.1-0.3-1.7-0.3h-4.5c-0.4,0-0.6,0.1-0.8,0.2c-0.1,0.2-0.2,0.4-0.2,0.7V189.6z M218.4,185.4
		c-0.1,0.6-0.3,1.2-0.7,1.6c-0.3,0.5-0.7,0.9-1.2,1.1c-0.5,0.3-1.1,0.4-1.9,0.4c-0.8,0-1.4-0.1-1.9-0.4s-0.9-0.6-1.2-1.1
		c-0.3-0.5-0.5-1-0.7-1.6c-0.1-0.6-0.2-1.3-0.2-2.1c0-0.7,0.1-1.3,0.2-2c0.2-0.6,0.4-1.2,0.7-1.6c0.3-0.5,0.7-0.8,1.3-1.1
		c0.5-0.3,1.1-0.4,1.8-0.4c0.8,0,1.4,0.1,1.9,0.4c0.5,0.3,0.9,0.7,1.2,1.1c0.3,0.5,0.5,1,0.6,1.7c0.1,0.6,0.2,1.3,0.2,1.9
		C218.6,184.1,218.5,184.7,218.4,185.4 M220,180.6c-0.2-0.8-0.6-1.5-1.1-2.1c-0.5-0.6-1.1-1-1.8-1.3c-0.7-0.3-1.6-0.5-2.5-0.5
		c-0.8,0-1.6,0.1-2.3,0.4c-0.7,0.3-1.3,0.7-1.8,1.3c-0.5,0.6-0.9,1.3-1.2,2.1c-0.3,0.8-0.4,1.8-0.4,2.9c0,2.1,0.5,3.8,1.4,4.9
		s2.4,1.7,4.3,1.7c1.9,0,3.4-0.6,4.4-1.7c1-1.2,1.5-2.8,1.5-5C220.4,182.3,220.3,181.4,220,180.6 M201.8,189.6c0,0.1,0,0.2,0.1,0.3
		c0.1,0,0.2,0.1,0.3,0.1h1.1c0.1,0,0.2,0,0.3-0.1c0.1,0,0.1-0.1,0.1-0.3v-11.1h3.9c0.1,0,0.2,0,0.2-0.1c0,0,0-0.1,0-0.2v-0.9
		c0-0.1,0-0.2,0-0.2c0,0-0.1-0.1-0.2-0.1H198c-0.1,0-0.2,0-0.2,0.1c0,0,0,0.1,0,0.2v0.9c0,0.1,0,0.2,0,0.2c0,0,0.1,0.1,0.2,0.1h3.8
		V189.6z M194.1,185.4h-4.5l1.3-4l0.9-2.6h0.1l0.9,2.7L194.1,185.4z M197.3,189.9c0.1,0,0.2,0,0.2-0.1c0-0.1,0-0.2,0-0.2l-4.4-11.9
		c-0.1-0.3-0.2-0.5-0.3-0.6c-0.1-0.1-0.4-0.2-0.7-0.2h-0.6c-0.3,0-0.5,0.1-0.6,0.2c-0.1,0.1-0.2,0.3-0.3,0.6l-4.4,11.9
		c0,0.1,0,0.2,0,0.2c0,0.1,0.1,0.1,0.2,0.1h1.3c0.2,0,0.3-0.1,0.4-0.3l1-2.7h5.5l1,2.7c0.1,0.1,0.1,0.2,0.2,0.2c0.1,0,0.2,0,0.3,0
		H197.3z M180.7,178.4c0.4,0.1,0.7,0.2,0.9,0.3c0.3,0.1,0.5,0.3,0.6,0.6s0.2,0.5,0.2,0.8c0,0.7-0.3,1.2-0.8,1.6
		c-0.5,0.4-1.2,0.6-2.1,0.6h-1.1c-0.4,0-0.6,0.2-0.6,0.6v0.4c0,0.2,0.1,0.4,0.2,0.4c0.1,0.1,0.3,0.1,0.5,0.1h1.1
		c0.6,0,1,0.1,1.5,0.2c0.4,0.1,0.8,0.3,1,0.5c0.3,0.2,0.5,0.4,0.6,0.7s0.2,0.5,0.2,0.8c0,0.8-0.3,1.4-0.9,1.9
		c-0.6,0.5-1.6,0.7-2.8,0.7c-0.3,0-0.6,0-0.9-0.1c-0.3,0-0.6-0.1-0.9-0.2c-0.3-0.1-0.6-0.1-0.9-0.2c-0.3-0.1-0.5-0.2-0.8-0.3
		c-0.2-0.1-0.3-0.1-0.3,0c-0.1,0-0.1,0.1-0.2,0.2l-0.4,0.7c-0.1,0.1-0.1,0.2-0.1,0.3c0,0.1,0.1,0.1,0.2,0.2c0.3,0.2,0.7,0.3,1.1,0.4
		c0.4,0.1,0.8,0.2,1.2,0.3c0.4,0.1,0.8,0.1,1.2,0.1c0.4,0,0.8,0,1.1,0c0.8,0,1.5-0.1,2.2-0.3c0.7-0.2,1.2-0.5,1.7-0.8
		c0.5-0.4,0.8-0.8,1.1-1.3c0.3-0.5,0.4-1,0.4-1.6c0-0.4-0.1-0.8-0.2-1.1c-0.1-0.3-0.3-0.6-0.6-0.9c-0.3-0.3-0.6-0.5-0.9-0.7
		c-0.3-0.2-0.7-0.3-1.1-0.4V183c0.7-0.2,1.3-0.6,1.7-1.1c0.4-0.5,0.7-1.1,0.7-1.8c0-0.5-0.1-1-0.3-1.4c-0.2-0.4-0.5-0.7-1-1
		c-0.4-0.3-0.9-0.5-1.4-0.6c-0.6-0.1-1.2-0.2-1.8-0.2c-0.7,0-1.4,0.1-2.1,0.2c-0.7,0.1-1.4,0.4-2,0.7c-0.1,0-0.1,0.1-0.2,0.1
		c0,0,0,0.2,0.1,0.3l0.3,0.7c0,0.1,0.1,0.1,0.1,0.2c0.1,0,0.2,0,0.3,0c0.5-0.2,1-0.3,1.6-0.5s1.2-0.2,1.8-0.2
		C180,178.3,180.4,178.3,180.7,178.4 M170.9,179.2v10.4c0,0.1,0,0.2,0.1,0.2c0,0,0.1,0,0.2,0h1.1c0.1,0,0.2,0,0.2,0
		c0.1,0,0.1-0.1,0.1-0.2v-11.8c0-0.3-0.1-0.5-0.2-0.7c-0.1-0.2-0.4-0.2-0.8-0.2h-0.5c-0.3,0-0.5,0.1-0.6,0.2
		c-0.1,0.1-0.3,0.3-0.4,0.6l-4.6,7.3l-1.6,2.5h-0.1v-10.3c0-0.1,0-0.2-0.1-0.2c0,0-0.1,0-0.2,0h-1.1c-0.1,0-0.2,0-0.2,0
		c-0.1,0-0.1,0.1-0.1,0.2V189c0,0.3,0.1,0.5,0.2,0.7c0.1,0.2,0.4,0.2,0.7,0.2h0.5c0.3,0,0.5-0.1,0.6-0.2c0.1-0.1,0.3-0.3,0.4-0.6
		l4.5-7.2L170.9,179.2L170.9,179.2z M157.2,182.3h-6.8v-5.1c0-0.1,0-0.2-0.1-0.3c-0.1,0-0.2-0.1-0.3-0.1h-1.1c-0.1,0-0.2,0-0.3,0.1
		c-0.1,0-0.1,0.1-0.1,0.3v12.3c0,0.1,0,0.2,0.1,0.3c0.1,0,0.2,0.1,0.3,0.1h1.1c0.1,0,0.2,0,0.3-0.1c0.1,0,0.1-0.1,0.1-0.3v-5.8h6.8
		v5.8c0,0.1,0,0.2,0.1,0.3c0.1,0,0.2,0.1,0.3,0.1h1.1c0.1,0,0.2,0,0.3-0.1c0.1,0,0.1-0.1,0.1-0.3v-12.3c0-0.1,0-0.2-0.1-0.3
		c-0.1,0-0.2-0.1-0.3-0.1h-1.1c-0.1,0-0.2,0-0.3,0.1c-0.1,0-0.1,0.1-0.1,0.3V182.3z M143,185.4h-4.5l1.3-4l0.9-2.6h0.1l0.9,2.7
		L143,185.4z M146.3,189.9c0.1,0,0.2,0,0.2-0.1c0-0.1,0-0.2,0-0.2l-4.4-11.9c-0.1-0.3-0.2-0.5-0.3-0.6c-0.1-0.1-0.4-0.2-0.7-0.2
		h-0.6c-0.3,0-0.5,0.1-0.6,0.2c-0.1,0.1-0.2,0.3-0.3,0.6l-4.4,11.9c0,0.1,0,0.2,0,0.2c0,0.1,0.1,0.1,0.2,0.1h1.3
		c0.2,0,0.3-0.1,0.4-0.3l1-2.7h5.5l1,2.7c0.1,0.1,0.1,0.2,0.2,0.2c0.1,0,0.2,0,0.3,0H146.3z M129,179.8c0-0.5,0.1-0.8,0.4-1.1
		c0.2-0.2,0.6-0.3,1.2-0.3h5.2c0.2,0,0.3,0,0.3-0.1c0-0.1,0.1-0.2,0.1-0.3v-0.8c0-0.1,0-0.2-0.1-0.3c0-0.1-0.1-0.1-0.3-0.1h-5.2
		c-0.6,0-1.1,0.1-1.6,0.3c-0.4,0.2-0.8,0.4-1,0.7c-0.3,0.3-0.4,0.6-0.5,1c-0.1,0.4-0.2,0.8-0.2,1.2v9.4c0,0.1,0,0.2,0.1,0.3
		c0.1,0,0.2,0.1,0.3,0.1h1c0.1,0,0.2,0,0.3-0.1c0.1,0,0.1-0.1,0.1-0.3V179.8z M122.5,182.6c-0.5,0.4-1.1,0.6-2.1,0.6h-3.3v-4.7h3.3
		c0.5,0,1,0.1,1.4,0.2c0.4,0.2,0.6,0.3,0.9,0.6c0.2,0.2,0.4,0.5,0.4,0.8c0.1,0.3,0.1,0.5,0.1,0.8
		C123.1,181.6,122.9,182.2,122.5,182.6 M115.3,189.6c0,0.1,0,0.2,0.1,0.3c0.1,0,0.2,0.1,0.3,0.1h1c0.1,0,0.2,0,0.3-0.1
		c0.1,0,0.1-0.1,0.1-0.3v-4.9h3.6c0.9,0,1.6-0.1,2.2-0.4c0.6-0.3,1-0.6,1.3-1c0.3-0.4,0.5-0.8,0.6-1.3c0.1-0.5,0.2-0.8,0.2-1.2
		c0-0.6-0.1-1.1-0.3-1.6c-0.2-0.5-0.5-0.9-0.9-1.2c-0.4-0.3-0.8-0.6-1.3-0.8c-0.5-0.2-1.1-0.3-1.7-0.3h-4.5c-0.4,0-0.6,0.1-0.8,0.2
		c-0.1,0.2-0.2,0.4-0.2,0.7V189.6z M110.6,185.4c-0.1,0.6-0.3,1.2-0.7,1.6c-0.3,0.5-0.7,0.9-1.2,1.1c-0.5,0.3-1.1,0.4-1.9,0.4
		c-0.8,0-1.4-0.1-1.9-0.4c-0.5-0.3-0.9-0.6-1.2-1.1c-0.3-0.5-0.5-1-0.7-1.6c-0.1-0.6-0.2-1.3-0.2-2.1c0-0.7,0.1-1.3,0.2-2
		c0.2-0.6,0.4-1.2,0.7-1.6c0.3-0.5,0.7-0.8,1.3-1.1c0.5-0.3,1.1-0.4,1.8-0.4c0.8,0,1.4,0.1,1.9,0.4c0.5,0.3,0.9,0.7,1.2,1.1
		c0.3,0.5,0.5,1,0.6,1.7c0.1,0.6,0.2,1.3,0.2,1.9C110.8,184.1,110.7,184.7,110.6,185.4 M112.2,180.6c-0.2-0.8-0.6-1.5-1.1-2.1
		c-0.5-0.6-1.1-1-1.8-1.3c-0.7-0.3-1.6-0.5-2.5-0.5c-0.8,0-1.6,0.1-2.3,0.4c-0.7,0.3-1.3,0.7-1.8,1.3c-0.5,0.6-0.9,1.3-1.2,2.1
		c-0.3,0.8-0.4,1.8-0.4,2.9c0,2.1,0.5,3.8,1.4,4.9c1,1.1,2.4,1.7,4.3,1.7c1.9,0,3.4-0.6,4.4-1.7c1-1.2,1.5-2.8,1.5-5
		C112.6,182.3,112.5,181.4,112.2,180.6"/>
</g>
</svg>
